<svg width="25" height="30" viewBox="0 0 25 30" fill="none" xmlns="http://www.w3.org/2000/svg">
<path d="M11.6455 29.8408L11.5418 29.7815C11.3185 29.6498 11.0974 29.5138 10.8783 29.3749C10.5284 29.1521 10.1839 28.9221 9.84533 28.6833C8.42195 27.6777 7.09197 26.5463 5.8717 25.3019C2.99282 22.3531 0 17.9213 0 12.2234C0 8.9809 1.28783 5.87296 3.58017 3.57963C5.87242 1.28774 8.98153 0 12.2234 0C15.4653 0 18.5743 1.28774 20.8666 3.57963C23.159 5.87296 24.4468 8.9809 24.4468 12.2234C24.4468 17.9227 21.4553 22.3531 18.5751 25.3019C17.3543 26.5463 16.0239 27.6777 14.5999 28.6833C14.0498 29.0711 13.4845 29.4386 12.9049 29.7815L12.7997 29.8423L12.7582 29.8654C12.5937 29.9537 12.4097 30 12.2227 30C12.0356 30 11.8515 29.9537 11.6871 29.8654L11.6455 29.8408Z" fill="url(#paint0_linear_2284_2079)"/>
<path d="M11.9301 14.0741C10.6473 14.0741 9.4894 13.259 9.04895 12.067C9.02624 12.067 9.00126 12.0693 8.97856 12.0693C8.51086 12.0693 8.26566 11.5744 8.0477 11.1362L8.03633 11.1135C7.98638 11.0158 7.56411 10.1395 7.72531 9.71036C7.77752 9.57187 7.87061 9.50831 7.94098 9.4788C8.23386 9.3562 8.5926 9.61047 9.04212 9.95104C9.47805 8.74317 10.6223 7.92583 11.9301 7.92583C13.2378 7.92583 14.4207 8.78406 14.8385 10.0078H14.843C15.3266 9.64 15.708 9.35165 16.0168 9.4788C16.0872 9.50831 16.1803 9.57187 16.2325 9.71036C16.3937 10.1417 15.9691 11.0158 15.9214 11.1135L15.9101 11.1339C15.6921 11.5721 15.4469 12.067 14.9792 12.067C14.9247 12.067 14.8702 12.0625 14.8157 12.0511C14.3776 13.2522 13.2219 14.0718 11.9301 14.0718V14.0741ZM9.34864 11.5062L9.41675 11.7378C9.7414 12.8458 10.7744 13.62 11.9301 13.62C13.0857 13.62 14.1369 12.8322 14.4525 11.7038L14.5274 11.4336L14.7749 11.563C14.843 11.5971 14.9111 11.6152 14.9792 11.6152C15.1654 11.6152 15.3447 11.2542 15.5037 10.9341L15.515 10.9114C15.7353 10.4664 15.8329 10.0555 15.817 9.90562C15.6671 9.94876 15.3289 10.2053 15.1177 10.3642L15.0791 10.3938C14.9951 10.4573 14.9202 10.5141 14.8498 10.5686L14.566 10.7888L14.4888 10.4369C14.2277 9.24266 13.1538 8.37766 11.9301 8.37766C10.7063 8.37766 9.67104 9.20181 9.38724 10.3801L9.3055 10.7184L8.84232 10.3665C8.63117 10.2076 8.2929 9.95104 8.14306 9.9079C8.12716 10.0555 8.22477 10.4687 8.44501 10.9137L8.45636 10.9364C8.6153 11.2542 8.79466 11.6175 8.98082 11.6175C9.02396 11.6175 9.07165 11.6084 9.12614 11.588L9.35316 11.5085L9.34864 11.5062Z" fill="white"/>
<path d="M14.9588 8.46849H8.99669C8.80861 8.46849 8.65614 8.62096 8.65614 8.80905V9.35849C8.65614 9.54657 8.80861 9.69904 8.99669 9.69904H14.9588C15.1468 9.69904 15.2993 9.54657 15.2993 9.35849V8.80905C15.2993 8.62096 15.1468 8.46849 14.9588 8.46849Z" fill="white"/>
<path d="M14.9588 9.81241H8.99672C8.74698 9.81241 8.54264 9.60807 8.54264 9.35833V8.80889C8.54264 8.55914 8.74698 8.3548 8.99672 8.3548H14.9588C15.2085 8.3548 15.4129 8.55914 15.4129 8.80889V9.35833C15.4129 9.60807 15.2085 9.81241 14.9588 9.81241ZM8.99672 8.58184C8.87184 8.58184 8.76968 8.68403 8.76968 8.80889V9.35833C8.76968 9.48319 8.87184 9.58537 8.99672 9.58537H14.9588C15.0837 9.58537 15.1858 9.48319 15.1858 9.35833V8.80889C15.1858 8.68403 15.0837 8.58184 14.9588 8.58184H8.99672Z" fill="white"/>
<path d="M9.33723 8.96163L11.6122 5.35623L11.7007 5.21547C11.8801 5.08152 12.0799 5.08152 12.2501 5.21547L12.3387 5.35623L14.6137 8.96163H9.33723Z" fill="white"/>
<path d="M14.8248 9.07479H9.13291L11.6349 5.12431C11.8551 4.95856 12.1117 4.95856 12.3228 5.12431L12.3478 5.15382L14.8225 9.07479H14.8248ZM9.54385 8.84777H14.4116L12.1662 5.29231C12.0459 5.20376 11.9142 5.20376 11.787 5.29231L9.54385 8.84777Z" fill="white"/>
<path d="M14.6069 10.3256C14.5138 10.7479 13.7895 10.4959 13.542 10.3937C13.2106 10.2575 12.92 10.0304 12.6838 9.75118C12.7247 9.72393 12.7656 9.69442 12.8064 9.66489C12.9358 9.56954 12.8132 9.34704 12.6816 9.4424C12.1435 9.83973 11.5441 10.1349 10.9061 10.3074C10.6042 10.3892 10.2931 10.4527 9.98207 10.4686C9.71416 10.4823 9.38494 10.4573 9.21013 10.2121C9.11703 10.0804 8.90363 10.2075 8.99672 10.3415C9.39403 10.9023 10.2068 10.7343 10.7654 10.6049C11.367 10.4664 11.946 10.2212 12.4727 9.88739C12.7701 10.2575 13.1652 10.5367 13.6056 10.6866C13.987 10.816 14.7181 10.9545 14.843 10.3914C14.8793 10.2302 14.6409 10.1621 14.6069 10.3233V10.3256Z" fill="white"/>
<path d="M14.2322 10.9206C13.9689 10.9206 13.7055 10.8457 13.5716 10.798C13.1402 10.6504 12.7565 10.3893 12.4522 10.0397C11.93 10.3575 11.3715 10.5869 10.7948 10.7208C10.259 10.8434 9.35995 11.05 8.90815 10.412C8.8582 10.3439 8.84911 10.2622 8.88316 10.1895C8.9195 10.1123 8.99896 10.0579 9.08751 10.0488C9.17151 10.042 9.25551 10.0783 9.30546 10.1509C9.41897 10.3099 9.6324 10.378 9.9775 10.3598C10.2431 10.3462 10.5383 10.294 10.8788 10.2032C11.4964 10.0351 12.0822 9.74907 12.618 9.3563C12.6838 9.30862 12.761 9.29726 12.8314 9.32906C12.9086 9.36311 12.9653 9.44257 12.9744 9.5334C12.9835 9.62421 12.9472 9.70821 12.8745 9.76042C12.8677 9.76496 12.8609 9.76951 12.8541 9.77405C13.0675 10.0034 13.3195 10.1805 13.5852 10.2894C13.8599 10.4029 14.2413 10.5028 14.4139 10.4143C14.4593 10.3916 14.4842 10.3553 14.4956 10.3008C14.5138 10.2168 14.5682 10.1555 14.6454 10.1305C14.7249 10.1055 14.818 10.126 14.8838 10.185C14.9474 10.244 14.9746 10.3303 14.9542 10.4166C14.9133 10.5982 14.818 10.7344 14.6659 10.8184C14.5365 10.8911 14.3843 10.9161 14.23 10.9161L14.2322 10.9206ZM12.5022 9.74226L12.5658 9.82172C12.8518 10.1759 13.2242 10.4393 13.6465 10.5846C13.7895 10.6345 14.2822 10.7821 14.5592 10.6254C14.6523 10.5732 14.7113 10.4892 14.7363 10.3712L14.7204 10.353C14.6931 10.4711 14.625 10.5619 14.5206 10.6164C14.2277 10.7685 13.71 10.5869 13.5012 10.5006C13.1674 10.3621 12.8541 10.1305 12.5998 9.82626L12.5203 9.73091L12.6611 9.6333C12.6884 9.61512 12.7156 9.59696 12.7428 9.57652C12.7519 9.54701 12.7428 9.53566 12.7406 9.5334C12.1957 9.9466 11.5849 10.244 10.9401 10.4211C10.5837 10.5187 10.2749 10.571 9.99111 10.5869C9.83446 10.5937 9.35995 10.6186 9.12156 10.2826H9.08977C9.43034 10.7549 10.1228 10.6436 10.7449 10.5006C11.3284 10.3666 11.8914 10.1305 12.4159 9.79675L12.5022 9.74226Z" fill="white"/>
<path d="M10.7494 11.7925C10.8849 11.7925 10.9946 11.6268 10.9946 11.4224C10.9946 11.218 10.8849 11.0524 10.7494 11.0524C10.614 11.0524 10.5042 11.218 10.5042 11.4224C10.5042 11.6268 10.614 11.7925 10.7494 11.7925Z" fill="white"/>
<path d="M10.7495 11.9037C10.5474 11.9037 10.3907 11.6925 10.3907 11.4201C10.3907 11.1476 10.5497 10.9365 10.7495 10.9365C10.9493 10.9365 11.1082 11.1476 11.1082 11.4201C11.1082 11.6925 10.9493 11.9037 10.7495 11.9037ZM10.7495 11.1658C10.6882 11.1658 10.6178 11.277 10.6178 11.4223C10.6178 11.5677 10.6882 11.6789 10.7495 11.6789C10.8108 11.6789 10.8812 11.5677 10.8812 11.4223C10.8812 11.277 10.8108 11.1658 10.7495 11.1658Z" fill="white"/>
<path d="M13.2083 11.7925C13.3437 11.7925 13.4535 11.6268 13.4535 11.4224C13.4535 11.218 13.3437 11.0524 13.2083 11.0524C13.0729 11.0524 12.9631 11.218 12.9631 11.4224C12.9631 11.6268 13.0729 11.7925 13.2083 11.7925Z" fill="white"/>
<path d="M13.2083 11.9037C13.0062 11.9037 12.8496 11.6925 12.8496 11.4201C12.8496 11.1476 13.0085 10.9365 13.2083 10.9365C13.4081 10.9365 13.567 11.1476 13.567 11.4201C13.567 11.6925 13.4081 11.9037 13.2083 11.9037ZM13.2083 11.1658C13.147 11.1658 13.0766 11.277 13.0766 11.4223C13.0766 11.5677 13.147 11.6789 13.2083 11.6789C13.2696 11.6789 13.34 11.5677 13.34 11.4223C13.34 11.277 13.2696 11.1658 13.2083 11.1658Z" fill="white"/>
<path d="M8.31331 17.9225L8.36781 17.6501C8.86049 15.1844 9.86854 13.6542 10.9992 13.6542H12.9608C14.0915 13.6542 15.0995 15.1844 15.5922 17.6501L15.6467 17.9225H8.31331ZM8.86956 17.4684H15.0882C14.6341 15.4183 13.81 14.1082 12.9608 14.1082H10.9992C10.1501 14.1082 9.32591 15.416 8.87184 17.4684H8.86956Z" fill="white"/>
<path d="M9.98205 14.2904C9.35089 13.38 8.37916 12.8147 7.37563 12.7784C6.94881 12.7625 6.41979 12.8442 6.21319 13.3482C5.99978 13.8704 6.15869 14.5765 6.42888 15.0283C6.66273 15.4211 7.01011 15.6935 7.39833 15.8139C7.06458 16.134 6.90567 16.7584 7.10092 17.1988C7.23487 17.4985 7.52322 17.6711 7.80475 17.6938C8.1612 17.7233 8.49267 17.5053 8.75831 17.2488C8.87636 17.1352 8.70836 16.9377 8.5903 17.0512C8.25427 17.3736 7.62311 17.6506 7.32796 17.0989C7.09411 16.6607 7.43012 15.8706 7.88647 15.8888C8.04086 15.8865 8.04086 15.6141 7.88647 15.6095C7.43467 15.6186 6.99648 15.3984 6.70587 14.992C6.43569 14.6174 6.25407 13.9839 6.41753 13.5072C6.57647 13.0417 7.11453 13.0372 7.471 13.0622C7.89782 13.0917 8.3224 13.2279 8.70381 13.4504C9.1352 13.7001 9.51209 14.052 9.81405 14.488C9.91168 14.6287 10.0797 14.4289 9.98205 14.2904Z" fill="white"/>
<path d="M7.86603 17.8093C7.84106 17.8093 7.81836 17.8093 7.79337 17.807C7.44828 17.7798 7.13497 17.5596 6.99647 17.2462C6.81257 16.8308 6.90566 16.2473 7.20081 15.8636C6.84436 15.7114 6.54012 15.4413 6.32898 15.0871C6.05879 14.6307 5.87263 13.8792 6.10648 13.3048C6.23362 12.9961 6.55828 12.6351 7.37791 12.6646C8.41547 12.7032 9.42354 13.2889 10.0729 14.2266C10.1682 14.3628 10.116 14.5354 10.007 14.6126C9.90713 14.6807 9.78905 14.658 9.71869 14.5535C9.42354 14.129 9.06254 13.7907 8.64477 13.5478C8.27245 13.3321 7.86376 13.2049 7.45963 13.1754C6.91019 13.1345 6.62187 13.2503 6.52197 13.5432C6.37212 13.9837 6.55148 14.5853 6.79668 14.9259C7.06232 15.296 7.45963 15.5048 7.88421 15.4957C8.02042 15.5003 8.11577 15.6115 8.11577 15.7523C8.11577 15.8931 8.01816 15.9998 7.88873 16.0021C7.75251 15.993 7.61856 16.0883 7.51412 16.2541C7.35518 16.5084 7.31887 16.8398 7.43012 17.0464C7.50731 17.1918 7.61176 17.2735 7.74797 17.2962C8 17.3371 8.31557 17.1622 8.5131 16.9715C8.60846 16.8807 8.74921 16.8852 8.84231 16.9829C8.9422 17.0873 8.93994 17.2372 8.84231 17.3325C8.51082 17.6504 8.1839 17.8116 7.87285 17.8116L7.86603 17.8093ZM7.28027 12.8893C6.77624 12.8893 6.45384 13.0574 6.31763 13.3911C6.11328 13.8929 6.28129 14.5603 6.52423 14.9713C6.73764 15.33 7.05777 15.5911 7.43012 15.7069L7.61402 15.7637L7.47552 15.8953C7.15993 16.1973 7.03507 16.774 7.20307 17.1532C7.30978 17.3916 7.54817 17.5596 7.81155 17.58C8.07946 17.5982 8.37006 17.4619 8.67885 17.1668C8.67885 17.1418 8.66976 17.1327 8.66521 17.1305C8.445 17.3461 8.0613 17.5755 7.70937 17.5187C7.50503 17.4869 7.33703 17.3598 7.22806 17.1532C7.08047 16.8762 7.11907 16.4584 7.32113 16.1337C7.46872 15.8976 7.67532 15.7682 7.89101 15.775C7.89101 15.7682 7.89101 15.7296 7.88192 15.7205C7.38243 15.7296 6.92382 15.4889 6.61504 15.0576C6.33124 14.6602 6.13373 13.9882 6.31082 13.4683C6.51062 12.878 7.24167 12.9302 7.48007 12.9484C7.91826 12.9802 8.36097 13.1187 8.76285 13.3502C9.2033 13.6045 9.58474 13.9587 9.89804 14.4037C9.89804 14.4014 9.9003 14.3969 9.9003 14.3946C9.90485 14.3719 9.89578 14.3606 9.8935 14.356C9.28276 13.4751 8.34055 12.9279 7.37562 12.8916C7.34612 12.8916 7.31432 12.8916 7.28482 12.8916L7.28027 12.8893Z" fill="white"/>
<path d="M13.9757 14.2904C14.6137 13.38 15.5945 12.8147 16.6093 12.7784C17.0385 12.7625 17.5743 12.8442 17.7831 13.3482C17.9988 13.8704 17.8376 14.5765 17.5652 15.0283C17.3291 15.4211 16.9772 15.6935 16.5866 15.8139C16.9227 16.134 17.0839 16.7584 16.8863 17.1988C16.7524 17.4985 16.4595 17.6711 16.1757 17.6938C15.8147 17.7233 15.4809 17.5053 15.2108 17.2488C15.0904 17.1352 15.263 16.9377 15.381 17.0512C15.7193 17.3736 16.3596 17.6506 16.657 17.0989C16.8932 16.6607 16.5549 15.8706 16.094 15.8888C15.9373 15.8865 15.9396 15.6141 16.094 15.6095C16.5503 15.6186 16.9931 15.3984 17.2882 14.992C17.5607 14.6174 17.7446 13.9839 17.5811 13.5072C17.4222 13.0417 16.875 13.0372 16.5163 13.0622C16.0849 13.0917 15.658 13.2279 15.2698 13.4504C14.8339 13.7001 14.4525 14.052 14.1482 14.488C14.0506 14.6287 13.8803 14.4289 13.9779 14.2904H13.9757Z" fill="white"/>
<path d="M16.1121 17.8095C15.7965 17.8095 15.4673 17.6483 15.1336 17.3304C15.0337 17.235 15.0314 17.0852 15.129 16.9808C15.2221 16.8831 15.3652 16.8763 15.4605 16.9671C15.6626 17.1579 15.9804 17.3349 16.237 17.2918C16.3755 17.2691 16.4799 17.1874 16.5594 17.0421C16.6684 16.84 16.6343 16.5085 16.4777 16.2565C16.3732 16.0862 16.2347 15.9909 16.1008 15.9977C15.9645 15.9954 15.8669 15.891 15.8669 15.7479C15.8669 15.6049 15.9623 15.4959 16.094 15.4914C16.5299 15.505 16.9317 15.2916 17.1997 14.9215C17.4471 14.5809 17.6288 13.9816 17.4766 13.5388C17.3767 13.2459 17.0839 13.1324 16.5276 13.171C16.1189 13.2005 15.7057 13.33 15.3288 13.5434C14.9065 13.784 14.541 14.1223 14.2436 14.5492C14.1709 14.6536 14.0529 14.6763 13.953 14.6059C13.844 14.531 13.7918 14.3562 13.8871 14.2222C14.5455 13.2845 15.5627 12.7011 16.6093 12.6602C17.4358 12.6307 17.765 12.9917 17.8921 13.3004C18.1282 13.8748 17.9421 14.6264 17.6674 15.0827C17.4562 15.4369 17.1474 15.7071 16.7864 15.8592C17.0839 16.2429 17.1792 16.8264 16.993 17.2419C16.8523 17.5552 16.5367 17.7754 16.187 17.8026C16.1621 17.8026 16.1394 17.8049 16.1144 17.8049L16.1121 17.8095ZM15.3039 17.1329C15.3039 17.1329 15.288 17.142 15.2857 17.1533C15.6013 17.4621 15.8964 17.6006 16.1666 17.5801C16.4323 17.5597 16.6752 17.3917 16.7819 17.1533C16.9522 16.7742 16.8273 16.1998 16.5072 15.8978L16.3664 15.7638L16.5503 15.7071C16.9249 15.5913 17.2496 15.3279 17.4653 14.9715C17.7105 14.5628 17.8808 13.893 17.6742 13.3913C17.5289 13.0393 17.1724 12.8691 16.6093 12.8918C15.6331 12.9281 14.6818 13.4753 14.0642 14.3562C14.0619 14.3607 14.0529 14.3721 14.0574 14.3948C14.0574 14.3993 14.0574 14.4039 14.0619 14.4061C14.3798 13.9588 14.7658 13.6069 15.2085 13.3527C15.6126 13.1211 16.0622 12.9826 16.5026 12.9508C16.7456 12.9326 17.4812 12.8804 17.6832 13.4707C17.8626 13.9884 17.6628 14.6627 17.3767 15.06C17.0702 15.4823 16.6116 15.723 16.1167 15.723C16.1076 15.723 16.0985 15.723 16.0894 15.723C16.094 15.723 16.0894 15.7343 16.0894 15.7479C16.0894 15.7638 16.094 15.7752 16.0962 15.7752C16.3074 15.7616 16.5163 15.8978 16.6661 16.1385C16.8659 16.4608 16.9045 16.8763 16.7569 17.151C16.6457 17.3576 16.4777 17.4848 16.2711 17.5166C15.9169 17.5733 15.5264 17.344 15.3039 17.1306V17.1329Z" fill="white"/>
<path d="M9.08752 10.1007C9.52571 10.1007 9.52571 9.41957 9.08752 9.41957C8.64932 9.41957 8.64932 10.1007 9.08752 10.1007Z" fill="white"/>
<path d="M14.8135 10.0644C15.2516 10.0644 15.2516 9.38328 14.8135 9.38328C14.3753 9.38328 14.3753 10.0644 14.8135 10.0644Z" fill="white"/>
<defs>
<linearGradient id="paint0_linear_2284_2079" x1="12.2234" y1="30" x2="12.2234" y2="0" gradientUnits="userSpaceOnUse">
<stop offset="0.32" stop-color="#502182"/>
<stop offset="0.93" stop-color="#2A173E"/>
</linearGradient>
</defs>
</svg>
