<svg width="86" height="86" viewBox="0 0 86 86" fill="none" xmlns="http://www.w3.org/2000/svg">
<path d="M43 84.5C65.9198 84.5 84.5 65.9198 84.5 43C84.5 20.0802 65.9198 1.5 43 1.5C20.0802 1.5 1.5 20.0802 1.5 43C1.5 65.9198 20.0802 84.5 43 84.5Z" stroke="#BEC5FF" stroke-width="3" stroke-linecap="round" stroke-linejoin="round"/>
<path d="M43 77.5C62.0538 77.5 77.5 62.0538 77.5 43C77.5 23.9462 62.0538 8.5 43 8.5C23.9462 8.5 8.5 23.9462 8.5 43C8.5 62.0538 23.9462 77.5 43 77.5Z" stroke="#BEC5FF" stroke-width="3" stroke-linecap="round" stroke-linejoin="round"/>
<path d="M43.1427 56.4743C46.1144 56.4743 48.5235 54.0653 48.5235 51.0936C48.5235 48.1219 46.1144 45.7129 43.1427 45.7129C40.1711 45.7129 37.762 48.1219 37.762 51.0936C37.762 54.0653 40.1711 56.4743 43.1427 56.4743Z" stroke="#BEC5FF" stroke-width="2" stroke-miterlimit="10"/>
<path d="M52.2608 42.1484H32.5735C30.3374 42.1484 28.5247 43.9611 28.5247 46.1972V55.9514C28.5247 58.1875 30.3374 60.0002 32.5735 60.0002H52.2608C54.4969 60.0002 56.3096 58.1875 56.3096 55.9514V46.1972C56.3096 43.9611 54.4969 42.1484 52.2608 42.1484Z" stroke="#BEC5FF" stroke-width="2" stroke-miterlimit="10"/>
<path d="M48.9542 38.875H35.8801V41.8901H48.9542V38.875Z" stroke="#BEC5FF" stroke-width="2" stroke-miterlimit="10"/>
<path d="M36.5229 44.4082H33.0042V45.813H36.5229V44.4082Z" fill="black" stroke="#BEC5FF" stroke-width="2" stroke-miterlimit="10"/>
<path d="M43.1428 53.3552C44.3907 53.3552 45.4024 52.3435 45.4024 51.0956C45.4024 49.8476 44.3907 48.8359 43.1428 48.8359C41.8948 48.8359 40.8831 49.8476 40.8831 51.0956C40.8831 52.3435 41.8948 53.3552 43.1428 53.3552Z" stroke="#BEC5FF" stroke-width="2" stroke-miterlimit="10"/>
<path d="M32.7657 36.0606L30.2012 34.8281L27.7295 36.2462L28.1072 33.4233L26 31.5082L28.803 30.998L29.9693 28.4004L31.3211 30.9052L34.1506 31.2167L32.1825 33.2775L32.7657 36.0606Z" stroke="#BEC5FF" stroke-miterlimit="10"/>
<path d="M44.859 35.8877C44.859 30.9708 48.1458 26.9883 52.2078 26.9883" stroke="#BEC5FF" stroke-width="2" stroke-miterlimit="10" stroke-linecap="round"/>
<path d="M47.0789 35.8876C47.0789 32.8792 49.6367 30.4473 52.7909 30.4473" stroke="#BEC5FF" stroke-width="2" stroke-miterlimit="10" stroke-linecap="round"/>
<path d="M39.962 35.8867C39.962 30.4199 37.0397 26 33.4283 26" stroke="#BEC5FF" stroke-width="2" stroke-miterlimit="10" stroke-linecap="round"/>
<path d="M34.4289 46.2846C34.5217 46.2316 34.6211 46.1852 34.7139 46.1454L34.4753 46.2448C34.7205 46.1388 34.9789 46.0725 35.244 46.0328L34.9789 46.0659C35.1313 46.046 35.2837 46.0394 35.4295 46.0394C35.6813 46.0394 35.953 45.9267 36.1319 45.7478C36.3108 45.5689 36.4368 45.2906 36.4235 45.0454C36.4102 44.8002 36.3307 44.5219 36.1319 44.343C35.9331 44.1641 35.7012 44.0581 35.4295 44.0514C34.7271 44.0382 34.0247 44.2237 33.4151 44.5617C33.1964 44.681 33.0241 44.9195 32.9578 45.1581C32.9181 45.2906 32.9115 45.4231 32.938 45.5557C32.938 45.6882 32.9843 45.8141 33.0572 45.9267C33.1964 46.1388 33.3952 46.3243 33.6536 46.384C33.9121 46.4436 34.1771 46.4171 34.4223 46.2846H34.4289Z" fill="#BEC5FF"/>
</svg>
