<svg width="86" height="86" viewBox="0 0 86 86" fill="none" xmlns="http://www.w3.org/2000/svg">
<path d="M43 84.5C65.9198 84.5 84.5 65.9198 84.5 43C84.5 20.0802 65.9198 1.5 43 1.5C20.0802 1.5 1.5 20.0802 1.5 43C1.5 65.9198 20.0802 84.5 43 84.5Z" stroke="#BEC5FF" stroke-width="3" stroke-linecap="round" stroke-linejoin="round"/>
<path d="M43 77.5C62.0538 77.5 77.5 62.0538 77.5 43C77.5 23.9462 62.0538 8.5 43 8.5C23.9462 8.5 8.5 23.9462 8.5 43C8.5 62.0538 23.9462 77.5 43 77.5Z" stroke="#BEC5FF" stroke-width="3" stroke-linecap="round" stroke-linejoin="round"/>
<path d="M43.422 28V35.8722M32.3141 41.5048H39.7219M36.0217 38.1118V45.2125M53.1443 51.5267H34.1642C33.7372 52.0061 26.9736 59.4963 24.7565 58.163C23.1311 57.1818 24.2022 51.6391 27.2282 44.5833V38.8758C27.2282 35.0558 30.3517 31.9324 34.1717 31.9324C35.1004 32.6964 38.5759 35.3554 43.7366 35.3254C48.8075 35.3029 52.208 32.7038 53.1443 31.9324C53.6087 31.9324 56.0655 31.9848 58.0504 33.9697C59.3087 35.228 60.0877 36.9658 60.0877 38.8758V44.5833C62.9265 51.3844 63.7354 56.7399 62.0951 57.6986C60.5746 58.59 56.8669 55.7437 53.1443 51.5267ZM51.9084 38.1118C50.0359 38.1118 48.5154 39.6323 48.5154 41.5048C48.5154 43.3774 50.0359 44.8979 51.9084 44.8979C53.781 44.8979 55.3015 43.3774 55.3015 41.5048C55.3015 39.6323 53.781 38.1118 51.9084 38.1118Z" stroke="#BEC5FF" stroke-width="2" stroke-miterlimit="10"/>
</svg>
