<svg width="15" height="14" viewBox="0 0 15 14" fill="none" xmlns="http://www.w3.org/2000/svg">
<path d="M13.2692 1.73079H11.2716L10.2909 0.259639C10.2387 0.179203 10.167 0.113239 10.0826 0.0678567C9.99812 0.0224747 9.90357 -0.000856695 9.80769 2.40412e-05H5.19231C5.09643 -0.000856695 5.00188 0.0224747 4.91742 0.0678567C4.83296 0.113239 4.76132 0.179203 4.70913 0.259639L3.72837 1.73079H1.73077C1.27233 1.73269 0.833199 1.91565 0.509028 2.23982C0.184856 2.56399 0.00189834 3.00312 0 3.46156V11.5385C0.00189834 11.9969 0.184856 12.4361 0.509028 12.7602C0.833199 13.0844 1.27233 13.2674 1.73077 13.2693H13.2692C13.7277 13.2674 14.1668 13.0844 14.491 12.7602C14.8151 12.4361 14.9981 11.9969 15 11.5385V3.46156C14.9981 3.00312 14.8151 2.56399 14.491 2.23982C14.1668 1.91565 13.7277 1.73269 13.2692 1.73079ZM13.8462 11.5385C13.8462 11.6915 13.7854 11.8382 13.6772 11.9464C13.569 12.0546 13.4222 12.1154 13.2692 12.1154H1.73077C1.57776 12.1154 1.43102 12.0546 1.32282 11.9464C1.21463 11.8382 1.15385 11.6915 1.15385 11.5385V3.46156C1.15385 3.30855 1.21463 3.16181 1.32282 3.05362C1.43102 2.94542 1.57776 2.88464 1.73077 2.88464H4.03846C4.13434 2.88552 4.22889 2.86219 4.31335 2.81681C4.39781 2.77142 4.46945 2.70546 4.52163 2.62502L5.5024 1.15387H9.4976L10.4784 2.62502C10.5306 2.70546 10.6022 2.77142 10.6867 2.81681C10.7711 2.86219 10.8657 2.88552 10.9615 2.88464H13.2692C13.4222 2.88464 13.569 2.94542 13.6772 3.05362C13.7854 3.16181 13.8462 3.30855 13.8462 3.46156V11.5385ZM7.5 4.03849C6.87242 4.03849 6.25894 4.22458 5.73713 4.57325C5.21532 4.92191 4.80862 5.41747 4.56846 5.99728C4.3283 6.57708 4.26546 7.21508 4.38789 7.8306C4.51033 8.44612 4.81253 9.0115 5.2563 9.45527C5.70006 9.89903 6.26545 10.2012 6.88096 10.3237C7.49648 10.4461 8.13448 10.3833 8.71428 10.1431C9.29409 9.90294 9.78965 9.49624 10.1383 8.97443C10.487 8.45262 10.6731 7.83914 10.6731 7.21156C10.6731 6.37001 10.3388 5.56293 9.7437 4.96786C9.14864 4.37279 8.34155 4.03849 7.5 4.03849ZM7.5 9.23079C7.10063 9.23079 6.71024 9.11237 6.37818 8.89049C6.04611 8.66862 5.7873 8.35325 5.63447 7.98429C5.48164 7.61532 5.44166 7.20932 5.51957 6.81763C5.59748 6.42594 5.78979 6.06615 6.07219 5.78375C6.35458 5.50136 6.71438 5.30904 7.10607 5.23113C7.49776 5.15322 7.90376 5.19321 8.27273 5.34604C8.64169 5.49887 8.95705 5.75768 9.17893 6.08974C9.4008 6.4218 9.51923 6.8122 9.51923 7.21156C9.51733 7.74651 9.30398 8.25901 8.92571 8.63728C8.54744 9.01554 8.03495 9.22889 7.5 9.23079Z" fill="#979797"/>
</svg>
