<svg width="30" height="25" viewBox="0 0 30 25" fill="none" xmlns="http://www.w3.org/2000/svg">
<path d="M12.1154 0C11.2973 0 10.7538 0.332308 10.4931 0.793846L9.015 3.46154H6.92308C6.92308 2.82577 6.405 2.30769 5.76923 2.30769H3.46154C2.82577 2.30769 2.30769 2.82577 2.30769 3.46154V3.67846C1.63445 3.9138 1.05086 4.35234 0.637498 4.93352C0.224136 5.51471 0.00138649 6.20988 1.18403e-07 6.92308L1.18403e-07 18.6058C-0.000151462 19.3445 0.14524 20.076 0.427869 20.7585C0.710498 21.4411 1.12483 22.0612 1.64719 22.5836C2.16955 23.1059 2.7897 23.5203 3.47223 23.8029C4.15475 24.0855 4.88627 24.2309 5.625 24.2308H24.375C25.1137 24.2309 25.8452 24.0855 26.5278 23.8029C27.2103 23.5203 27.8305 23.1059 28.3528 22.5836C28.8752 22.0612 29.2895 21.4411 29.5721 20.7585C29.8548 20.076 30.0002 19.3445 30 18.6058V9.08654C30.0002 8.34781 29.8548 7.61629 29.5721 6.93376C29.2895 6.25124 28.8752 5.63108 28.3528 5.10872C27.8305 4.58636 27.2103 4.17204 26.5278 3.88941C25.8452 3.60678 25.1137 3.46139 24.375 3.46154H23.2927L21.8158 0.792692C21.5538 0.334615 20.9769 0 20.1923 0H12.1154ZM4.61538 4.03846C4.84275 4.03854 5.06787 4.08339 5.2779 4.17047C5.48793 4.25755 5.67875 4.38515 5.83946 4.54597C6.00018 4.70679 6.12765 4.8977 6.21458 5.10778C6.30152 5.31787 6.34623 5.54302 6.34615 5.77039C6.34608 5.99775 6.30122 6.22287 6.21414 6.4329C6.12706 6.64293 5.99947 6.83375 5.83865 6.99446C5.67782 7.15518 5.48692 7.28265 5.27683 7.36958C5.06675 7.45652 4.84159 7.50123 4.61423 7.50115C4.15505 7.501 3.71474 7.31844 3.39015 6.99365C3.06557 6.66885 2.88331 6.22841 2.88346 5.76923C2.88361 5.31005 3.06617 4.86974 3.39097 4.54515C3.71577 4.22057 4.1562 4.03831 4.61538 4.03846ZM16.1538 4.54385C17.2241 4.54392 18.2838 4.75479 19.2725 5.16442C20.2613 5.57405 21.1596 6.17441 21.9163 6.93122C22.673 7.68804 23.2733 8.58649 23.6828 9.57527C24.0922 10.5641 24.303 11.6238 24.3029 12.694C24.3028 13.7643 24.0919 14.824 23.6823 15.8127C23.2727 16.8014 22.6723 17.6998 21.9155 18.4565C21.1587 19.2132 20.2602 19.8135 19.2715 20.2229C18.2827 20.6324 17.2229 20.8432 16.1527 20.8431C15.0824 20.843 14.0226 20.6321 13.0338 20.2225C12.045 19.8128 11.1466 19.2124 10.3898 18.4555C8.86145 16.927 8.00292 14.8539 8.00308 12.6923C8.00323 10.5307 8.86206 8.45777 10.3906 6.92942C11.9192 5.40107 13.9923 4.54254 16.1538 4.54269V4.54385ZM16.1538 7.14C15.4247 7.14 14.7027 7.28361 14.0291 7.56264C13.3554 7.84167 12.7434 8.25065 12.2278 8.76623C11.7122 9.28181 11.3032 9.89389 11.0242 10.5675C10.7452 11.2412 10.6015 11.9632 10.6015 12.6923C10.6015 13.4214 10.7452 14.1434 11.0242 14.8171C11.3032 15.4907 11.7122 16.1028 12.2278 16.6184C12.7434 17.134 13.3554 17.5429 14.0291 17.822C14.7027 18.101 15.4247 18.2446 16.1538 18.2446C17.6266 18.2446 19.039 17.6596 20.0803 16.6182C21.1217 15.5768 21.7067 14.1644 21.7067 12.6917C21.7067 11.219 21.1217 9.80662 20.0803 8.76525C19.039 7.72388 17.6266 7.14 16.1538 7.14Z" fill="#1C92FF"/>
</svg>
