<svg width="86" height="86" viewBox="0 0 86 86" fill="none" xmlns="http://www.w3.org/2000/svg">
<path d="M43 84.5C65.9198 84.5 84.5 65.9198 84.5 43C84.5 20.0802 65.9198 1.5 43 1.5C20.0802 1.5 1.5 20.0802 1.5 43C1.5 65.9198 20.0802 84.5 43 84.5Z" stroke="#BEC5FF" stroke-width="3" stroke-linecap="round" stroke-linejoin="round"/>
<path d="M43 77.5C62.0538 77.5 77.5 62.0538 77.5 43C77.5 23.9462 62.0538 8.5 43 8.5C23.9462 8.5 8.5 23.9462 8.5 43C8.5 62.0538 23.9462 77.5 43 77.5Z" stroke="#BEC5FF" stroke-width="3" stroke-linecap="round" stroke-linejoin="round"/>
<path d="M54.0823 38.0915C53.5496 37.8707 52.5036 38.6567 51.3667 39.5143C51.0809 39.7287 50.8275 39.9236 50.5936 40.099C49.7945 36.4349 46.5398 33.6934 42.6353 33.6934C38.7309 33.6934 35.5865 36.3505 34.7225 39.9236C34.5536 39.7936 34.3782 39.6637 34.1833 39.5143C33.0464 38.6567 32.0004 37.8707 31.4677 38.0915C30.6946 38.4164 31.4547 40.6447 32.0719 41.8855C32.6566 43.0614 33.2283 44.2568 34.1833 44.2568C34.4042 44.2568 34.6185 44.2048 34.8199 44.1333C35.8139 47.5181 38.9323 49.9867 42.6353 49.9867C46.3384 49.9867 49.5217 47.4661 50.4767 44.0294C50.7495 44.1723 51.0419 44.2568 51.3602 44.2568C52.3152 44.2568 52.8869 43.0614 53.4716 41.8855C54.0888 40.6447 54.8489 38.4164 54.0758 38.0915H54.0823Z" stroke="#BEC5FF" stroke-width="2" stroke-miterlimit="10"/>
<path d="M51.3082 34.5977H34.2482C33.71 34.5977 33.2737 35.0339 33.2737 35.5721V37.1443C33.2737 37.6825 33.71 38.1188 34.2482 38.1188H51.3082C51.8464 38.1188 52.2827 37.6825 52.2827 37.1443V35.5721C52.2827 35.0339 51.8464 34.5977 51.3082 34.5977Z" fill="#BEC5FF" stroke="#BEC5FF" stroke-miterlimit="10"/>
<path d="M35.2227 36.0068L41.7323 25.6903L41.9856 25.2875C42.4989 24.9042 43.0706 24.9042 43.5578 25.2875L43.8112 25.6903C45.8836 28.971 50.3207 36.0068 50.3207 36.0068H35.2227Z" fill="#BEC5FF" stroke="#BEC5FF" stroke-miterlimit="10" stroke-linecap="round"/>
<path d="M50.3013 39.9101C50.0349 41.1185 47.9625 40.3974 47.2544 40.105C46.3059 39.7152 45.4743 39.0656 44.7987 38.2665C44.9156 38.1885 45.0326 38.1041 45.1495 38.0196C45.5198 37.7468 45.169 37.1101 44.7922 37.383C43.2525 38.5199 41.5374 39.3644 39.7119 39.8582C38.8478 40.092 37.9578 40.2739 37.0678 40.3194C36.3012 40.3584 35.3592 40.2869 34.8589 39.5853C34.5926 39.2085 33.9819 39.5723 34.2483 39.9556C35.3852 41.5603 37.7109 41.0795 39.3091 40.7092C41.0307 40.3129 42.6873 39.6113 44.1945 38.6563C45.0455 39.7152 46.176 40.5143 47.4363 40.9431C48.5277 41.3134 50.6196 41.7097 50.9769 40.0985C51.0809 39.6373 50.3987 39.4424 50.3013 39.9036V39.9101Z" fill="#BEC5FF" stroke="#BEC5FF" stroke-miterlimit="10"/>
<path d="M39.2571 44.1081C39.6446 44.1081 39.9587 43.634 39.9587 43.0492C39.9587 42.4643 39.6446 41.9902 39.2571 41.9902C38.8696 41.9902 38.5555 42.4643 38.5555 43.0492C38.5555 43.634 38.8696 44.1081 39.2571 44.1081Z" fill="#BEC5FF" stroke="#BEC5FF" stroke-miterlimit="10"/>
<path d="M46.2994 44.1081C46.6869 44.1081 47.001 43.634 47.001 43.0492C47.001 42.4643 46.6869 41.9902 46.2994 41.9902C45.9119 41.9902 45.5978 42.4643 45.5978 43.0492C45.5978 43.634 45.9119 44.1081 46.2994 44.1081Z" fill="#BEC5FF" stroke="#BEC5FF" stroke-miterlimit="10"/>
<path d="M52.4776 61.0002C51.1848 54.5426 48.5797 50.0859 45.5848 50.0859H39.9717C36.9768 50.0859 34.3717 54.5361 33.0789 61.0002H52.4711H52.4776Z" stroke="#BEC5FF" stroke-width="2" stroke-miterlimit="10" stroke-linecap="round"/>
<path d="M37.0678 51.2537C35.2617 48.6486 32.4812 47.031 29.6097 46.927C28.3883 46.8815 26.8746 47.1154 26.2835 48.5576C25.6728 50.0519 26.1275 52.0723 26.9006 53.3651C27.5698 54.489 28.5637 55.2686 29.6747 55.6129C28.7197 56.5289 28.2649 58.3155 28.8236 59.5758C29.2069 60.4334 30.032 60.9271 30.8375 60.9921C31.8575 61.0765 32.806 60.4529 33.5661 59.7188C33.9039 59.3939 33.4232 58.8287 33.0854 59.1535C32.1239 60.0761 30.3178 60.8686 29.4733 59.29C28.8041 58.0361 29.7656 55.7753 31.0714 55.8273C31.5132 55.8208 31.5132 55.0412 31.0714 55.0282C29.7786 55.0542 28.5248 54.424 27.6932 53.2612C26.9201 52.1892 26.4004 50.3767 26.8681 49.0124C27.3229 47.6806 28.8626 47.6676 29.8826 47.7391C31.1039 47.8235 32.3188 48.2133 33.4102 48.85C34.6445 49.5646 35.723 50.5716 36.587 51.8189C36.8664 52.2217 37.3471 51.65 37.0678 51.2537Z" fill="#BEC5FF" stroke="#BEC5FF" stroke-miterlimit="10"/>
<path d="M48.4952 51.2537C50.3207 48.6486 53.1272 47.031 56.0312 46.927C57.2591 46.8815 58.7922 47.1154 59.3899 48.5576C60.0071 50.0519 59.5459 52.0723 58.7663 53.3651C58.0906 54.489 57.0837 55.2686 55.9662 55.6129C56.9277 56.5289 57.389 58.3155 56.8238 59.5758C56.4405 60.4334 55.6024 60.9271 54.7904 60.9921C53.7574 61.0765 52.8024 60.4529 52.0293 59.7188C51.685 59.3939 52.1787 58.8287 52.5166 59.1535C53.4846 60.0761 55.3166 60.8686 56.1676 59.29C56.8433 58.0361 55.8753 55.7753 54.5565 55.8273C54.1082 55.8208 54.1147 55.0412 54.5565 55.0282C55.8623 55.0542 57.1291 54.424 57.9737 53.2612C58.7533 52.1892 59.2795 50.3767 58.8117 49.0124C58.357 47.6806 56.7913 47.6676 55.7648 47.7391C54.5305 47.8235 53.3091 48.2133 52.1982 48.85C50.9509 49.5646 49.8595 50.5716 48.9889 51.8189C48.7096 52.2217 48.2223 51.65 48.5017 51.2537H48.4952Z" fill="#BEC5FF" stroke="#BEC5FF" stroke-miterlimit="10"/>
<path d="M34.5081 39.2673C35.762 39.2673 35.762 37.3184 34.5081 37.3184C33.2543 37.3184 33.2543 39.2673 34.5081 39.2673Z" fill="#BEC5FF"/>
<path d="M50.8925 39.1716C52.1463 39.1716 52.1463 37.2227 50.8925 37.2227C49.6386 37.2227 49.6386 39.1716 50.8925 39.1716Z" fill="#BEC5FF"/>
</svg>
