<svg width="25" height="30" viewBox="0 0 25 30" fill="none" xmlns="http://www.w3.org/2000/svg">
<path d="M11.6455 29.8408L11.5418 29.7815C11.3185 29.6499 11.0974 29.5138 10.8783 29.3749C10.5284 29.1521 10.1839 28.9221 9.84533 28.6833C8.42195 27.6777 7.09198 26.5463 5.8717 25.3019C2.99282 22.3531 0 17.9213 0 12.2234C0 8.9809 1.28783 5.87296 3.58017 3.57963C5.87242 1.28774 8.98153 0 12.2234 0C15.4653 0 18.5743 1.28774 20.8666 3.57963C23.159 5.87296 24.4468 8.9809 24.4468 12.2234C24.4468 17.9227 21.4553 22.3531 18.5751 25.3019C17.3543 26.5463 16.0239 27.6777 14.5999 28.6833C14.0498 29.0711 13.4845 29.4386 12.9049 29.7815L12.7997 29.8423L12.7582 29.8654C12.5937 29.9537 12.4097 30 12.2227 30C12.0356 30 11.8515 29.9537 11.6871 29.8654L11.6455 29.8408Z" fill="#27CD7B"/>
<path d="M14.64 8.75C14.64 9.68946 14.1878 10.5189 13.4977 11.015C13.5148 11.0861 13.5292 11.1876 13.55 11.3347C13.7362 12.6512 14.6882 14.536 17.486 14.8663C17.6775 14.8889 17.7732 14.9002 17.8365 14.9405C17.8973 14.9793 17.9395 15.0293 17.9692 15.0976C18 15.1687 18 15.2631 18 15.4521V17.4316C18 17.6285 18 17.7269 17.9644 17.8023C17.9317 17.8716 17.8787 17.9277 17.8133 17.9623C17.7421 18 17.6492 18 17.4633 18H6.53667C6.35082 18 6.25789 18 6.18666 17.9623C6.12128 17.9277 6.06827 17.8716 6.0356 17.8023C6 17.7269 6 17.6285 6 17.4316L6 17.25H18V16.5H6L6 15.4521C6 15.2631 6 15.1687 6.03082 15.0976C6.06047 15.0293 6.10266 14.9793 6.16352 14.9405C6.22677 14.9002 6.3225 14.8889 6.51397 14.8663C9.31183 14.536 10.2638 12.6512 10.45 11.3347C10.4708 11.1876 10.4852 11.0861 10.5023 11.015C9.81225 10.5189 9.36 9.68946 9.36 8.75C9.36 7.23122 10.542 6 12 6C13.458 6 14.64 7.23122 14.64 8.75Z" fill="#005C2F"/>
</svg>
