<svg width="18" height="18" viewBox="0 0 18 18" fill="none" xmlns="http://www.w3.org/2000/svg">
<path d="M15.1875 9.42767V8.56704L16.2675 7.62204C16.4666 7.44657 16.5972 7.20637 16.6363 6.94389C16.6754 6.68141 16.6205 6.41356 16.4812 6.18767L15.1537 3.93767C15.0551 3.76682 14.9133 3.62491 14.7425 3.52618C14.5717 3.42745 14.3779 3.37537 14.1806 3.37517C14.0584 3.37423 13.9368 3.39323 13.8206 3.43142L12.4537 3.89267C12.2177 3.73585 11.9716 3.59491 11.7169 3.47079L11.43 2.05329C11.3786 1.79432 11.2377 1.56169 11.032 1.39613C10.8263 1.23056 10.569 1.14261 10.305 1.14767H7.67249C7.40851 1.14261 7.15116 1.23056 6.94548 1.39613C6.73981 1.56169 6.59893 1.79432 6.54749 2.05329L6.26062 3.47079C6.00408 3.59488 5.75604 3.73581 5.51812 3.89267L4.17936 3.40892C4.06197 3.37833 3.9404 3.36693 3.81936 3.37517C3.62208 3.37537 3.42832 3.42745 3.25752 3.52618C3.08672 3.62491 2.94488 3.76682 2.84624 3.93767L1.51874 6.18767C1.38744 6.41322 1.33866 6.67741 1.38073 6.93498C1.4228 7.19256 1.55312 7.42749 1.74936 7.59954L2.81249 8.57267V9.43329L1.74936 10.3783C1.54758 10.5515 1.4137 10.7907 1.37148 11.0533C1.32926 11.3158 1.38143 11.5849 1.51874 11.8127L2.84624 14.0627C2.94488 14.2335 3.08672 14.3754 3.25752 14.4742C3.42832 14.5729 3.62208 14.625 3.81936 14.6252C3.94162 14.6261 4.06322 14.6071 4.17936 14.5689L5.54624 14.1077C5.78223 14.2645 6.0284 14.4054 6.28311 14.5295L6.56999 15.947C6.62143 16.206 6.76231 16.4386 6.96798 16.6042C7.17366 16.7698 7.43101 16.8577 7.69499 16.8527H10.35C10.614 16.8577 10.8713 16.7698 11.077 16.6042C11.2827 16.4386 11.4236 16.206 11.475 15.947L11.7619 14.5295C12.0184 14.4055 12.2664 14.2645 12.5044 14.1077L13.8656 14.5689C13.9818 14.6071 14.1034 14.6261 14.2256 14.6252C14.4229 14.625 14.6167 14.5729 14.7875 14.4742C14.9583 14.3754 15.1001 14.2335 15.1987 14.0627L16.4812 11.8127C16.6125 11.5871 16.6613 11.3229 16.6193 11.0653C16.5772 10.8078 16.4469 10.5728 16.2506 10.4008L15.1875 9.42767ZM14.1806 13.5002L12.2512 12.8477C11.7996 13.2302 11.2834 13.5293 10.7269 13.7308L10.3275 15.7502H7.67249L7.27312 13.7533C6.72098 13.5461 6.20758 13.2475 5.75436 12.8702L3.81936 13.5002L2.49186 11.2502L4.02186 9.90017C3.91786 9.3179 3.91786 8.72181 4.02186 8.13954L2.49186 6.75017L3.81936 4.50017L5.74874 5.15267C6.20039 4.77011 6.71658 4.47106 7.27312 4.26954L7.67249 2.25017H10.3275L10.7269 4.24704C11.279 4.45428 11.7924 4.75281 12.2456 5.13017L14.1806 4.50017L15.5081 6.75017L13.9781 8.10017C14.0821 8.68243 14.0821 9.27853 13.9781 9.86079L15.5081 11.2502L14.1806 13.5002Z" fill="white"/>
<path d="M9 12.375C8.33249 12.375 7.67997 12.1771 7.12495 11.8062C6.56994 11.4354 6.13735 10.9083 5.88191 10.2916C5.62646 9.67486 5.55963 8.99626 5.68985 8.34157C5.82008 7.68689 6.14151 7.08552 6.61352 6.61352C7.08552 6.14151 7.68689 5.82008 8.34157 5.68985C8.99626 5.55963 9.67486 5.62646 10.2916 5.88191C10.9083 6.13735 11.4354 6.56994 11.8062 7.12495C12.1771 7.67997 12.375 8.33249 12.375 9C12.3795 9.44447 12.2953 9.88537 12.1273 10.2969C11.9593 10.7084 11.7108 11.0822 11.3965 11.3965C11.0822 11.7108 10.7084 11.9593 10.2969 12.1273C9.88537 12.2953 9.44447 12.3795 9 12.375ZM9 6.75C8.70263 6.74307 8.40695 6.79654 8.13084 6.90716C7.85472 7.01778 7.60391 7.18326 7.39359 7.39359C7.18326 7.60391 7.01778 7.85472 6.90716 8.13084C6.79654 8.40695 6.74307 8.70263 6.75 9C6.74307 9.29737 6.79654 9.59305 6.90716 9.86917C7.01778 10.1453 7.18326 10.3961 7.39359 10.6064C7.60391 10.8167 7.85472 10.9822 8.13084 11.0928C8.40695 11.2035 8.70263 11.2569 9 11.25C9.29737 11.2569 9.59305 11.2035 9.86917 11.0928C10.1453 10.9822 10.3961 10.8167 10.6064 10.6064C10.8167 10.3961 10.9822 10.1453 11.0928 9.86917C11.2035 9.59305 11.2569 9.29737 11.25 9C11.2569 8.70263 11.2035 8.40695 11.0928 8.13084C10.9822 7.85472 10.8167 7.60391 10.6064 7.39359C10.3961 7.18326 10.1453 7.01778 9.86917 6.90716C9.59305 6.79654 9.29737 6.74307 9 6.75Z" fill="white"/>
</svg>
