<svg width="25" height="30" viewBox="0 0 25 30" fill="none" xmlns="http://www.w3.org/2000/svg">
<path d="M11.6455 29.8408L11.5418 29.7815C11.3185 29.6498 11.0974 29.5138 10.8783 29.3749C10.5284 29.1521 10.1839 28.9221 9.84533 28.6833C8.42195 27.6777 7.09197 26.5463 5.8717 25.3019C2.99282 22.3531 0 17.9213 0 12.2234C0 8.9809 1.28783 5.87296 3.58017 3.57963C5.87242 1.28774 8.98153 0 12.2234 0C15.4653 0 18.5743 1.28774 20.8666 3.57963C23.159 5.87296 24.4468 8.9809 24.4468 12.2234C24.4468 17.9227 21.4553 22.3531 18.5751 25.3019C17.3543 26.5463 16.0239 27.6777 14.5999 28.6833C14.0498 29.0711 13.4845 29.4386 12.9049 29.7815L12.7997 29.8423L12.7582 29.8654C12.5937 29.9537 12.4097 30 12.2227 30C12.0356 30 11.8515 29.9537 11.6871 29.8654L11.6455 29.8408Z" fill="url(#paint0_linear_1905_2223)"/>
<path fill-rule="evenodd" clip-rule="evenodd" d="M10.6415 15.521C10.6415 14.2829 11.6452 13.2793 12.8832 13.2793C14.1213 13.2793 15.1249 14.2829 15.1249 15.521C15.1249 16.7591 14.1213 17.7628 12.8832 17.7628C11.6452 17.7628 10.6415 16.7591 10.6415 15.521ZM12.8832 13.7891C11.9267 13.7891 11.1512 14.5645 11.1512 15.521C11.1512 16.4776 11.9267 17.253 12.8832 17.253C13.8398 17.253 14.6152 16.4776 14.6152 15.521C14.6152 14.5645 13.8398 13.7891 12.8832 13.7891Z" fill="white"/>
<path fill-rule="evenodd" clip-rule="evenodd" d="M7.23059 13.7118C7.23059 12.7454 8.01405 11.9619 8.9805 11.9619H16.2501C17.2166 11.9619 18 12.7454 18 13.7118V17.3136C18 18.2801 17.2166 19.0635 16.2501 19.0635H8.9805C8.01405 19.0635 7.23059 18.28 7.23059 17.3136V13.7118ZM8.9805 12.4717C8.29558 12.4717 7.74035 13.0269 7.74035 13.7118V17.3136C7.74035 17.9985 8.29558 18.5537 8.9805 18.5537H16.2501C16.935 18.5537 17.4903 17.9985 17.4903 17.3136V13.7118C17.4903 13.0269 16.935 12.4717 16.2501 12.4717H8.9805Z" fill="white"/>
<path fill-rule="evenodd" clip-rule="evenodd" d="M9.94666 10.7539H15.2841V12.377H9.94666V10.7539ZM10.4564 11.2637V11.8672H14.7743V11.2637H10.4564Z" fill="white"/>
<path d="M10.4388 13.0518H9.13953V13.5705H10.4388V13.0518Z" fill="black"/>
<path fill-rule="evenodd" clip-rule="evenodd" d="M8.88464 12.7969H10.6937V13.8254H8.88464V12.7969ZM9.39441 13.3066V13.3156H10.1839V13.3066H9.39441Z" fill="white"/>
<path fill-rule="evenodd" clip-rule="evenodd" d="M11.7939 15.5209C11.7939 14.9193 12.2816 14.4316 12.8832 14.4316C13.4848 14.4316 13.9725 14.9193 13.9725 15.5209C13.9725 16.1225 13.4848 16.6102 12.8832 16.6102C12.2816 16.6102 11.7939 16.1225 11.7939 15.5209ZM12.8832 14.9414C12.5632 14.9414 12.3037 15.2009 12.3037 15.5209C12.3037 15.841 12.5632 16.1004 12.8832 16.1004C13.2033 16.1004 13.4627 15.841 13.4627 15.5209C13.4627 15.2009 13.2033 14.9414 12.8832 14.9414Z" fill="white"/>
<path fill-rule="evenodd" clip-rule="evenodd" d="M7.99791 6.56543L8.67885 7.82717L10.1034 7.98396L9.11312 9.02089L9.40693 10.4232L8.11502 9.80226L6.87074 10.5161L7.06097 9.0944L6 8.13019L7.41066 7.8734L7.99791 6.56543ZM8.03988 7.71652L7.76584 8.32689L7.10646 8.44692L7.60169 8.89699L7.51298 9.55997L8.09405 9.2266L8.69601 9.51591L8.55917 8.86284L9.02236 8.37782L8.35726 8.30461L8.03988 7.71652Z" fill="white"/>
<path fill-rule="evenodd" clip-rule="evenodd" d="M16.2307 6.87402C14.915 6.87402 13.772 8.18259 13.772 9.90527C13.772 10.046 13.6579 10.1601 13.5171 10.1601C13.3763 10.1601 13.2622 10.046 13.2622 9.90527C13.2622 7.99681 14.5465 6.36426 16.2307 6.36426C16.3714 6.36426 16.4856 6.47837 16.4856 6.61914C16.4856 6.75991 16.3714 6.87402 16.2307 6.87402Z" fill="white"/>
<path fill-rule="evenodd" clip-rule="evenodd" d="M16.4459 8.15136C15.4099 8.15136 14.5915 8.94693 14.5915 9.90535C14.5915 10.0461 14.4774 10.1602 14.3367 10.1602C14.1959 10.1602 14.0818 10.0461 14.0818 9.90535C14.0818 8.64202 15.1524 7.6416 16.4459 7.6416C16.5866 7.6416 16.7007 7.75572 16.7007 7.89648C16.7007 8.03725 16.5866 8.15136 16.4459 8.15136Z" fill="white"/>
<path fill-rule="evenodd" clip-rule="evenodd" d="M9.04138 6.25488C9.04138 6.11411 9.1555 6 9.29626 6C10.0756 6 10.7488 6.47691 11.2153 7.1827C11.683 7.89038 11.9637 8.85351 11.9637 9.90559C11.9637 10.0464 11.8496 10.1605 11.7089 10.1605C11.5681 10.1605 11.454 10.0464 11.454 9.90559C11.454 8.93902 11.1952 8.07679 10.79 7.46378C10.3836 6.84888 9.85042 6.50976 9.29626 6.50976C9.1555 6.50976 9.04138 6.39565 9.04138 6.25488Z" fill="white"/>
<path d="M9.66567 13.7448C9.69992 13.7252 9.73663 13.7081 9.77088 13.6934L9.6828 13.7301C9.77333 13.6909 9.86876 13.6665 9.96663 13.6518L9.86876 13.664C9.92504 13.6567 9.98131 13.6542 10.0351 13.6542C10.1281 13.6542 10.2284 13.6126 10.2945 13.5466C10.3606 13.4805 10.4071 13.3777 10.4022 13.2872C10.3973 13.1967 10.3679 13.0939 10.2945 13.0278C10.2211 12.9618 10.1355 12.9226 10.0351 12.9202C9.77578 12.9153 9.51641 12.9838 9.2913 13.1086C9.21055 13.1526 9.14693 13.2407 9.12247 13.3288C9.10778 13.3777 9.10534 13.4267 9.11513 13.4756C9.11513 13.5245 9.13225 13.571 9.15917 13.6126C9.21055 13.6909 9.28396 13.7594 9.37939 13.7815C9.47481 13.8035 9.57269 13.7937 9.66322 13.7448H9.66567Z" fill="white"/>
<defs>
<linearGradient id="paint0_linear_1905_2223" x1="12.2234" y1="30" x2="12.2234" y2="0" gradientUnits="userSpaceOnUse">
<stop offset="0.32" stop-color="#502182"/>
<stop offset="0.93" stop-color="#2A173E"/>
</linearGradient>
</defs>
</svg>
