<svg width="35" height="35" viewBox="0 0 35 35" fill="none" xmlns="http://www.w3.org/2000/svg">
<path d="M3.88889 35C3.33796 35 2.87583 34.8133 2.5025 34.44C2.12917 34.0667 1.94315 33.6052 1.94444 33.0555V31.1111H0V23.3333C0 22.7824 0.186667 22.3203 0.56 21.9469C0.933334 21.5736 1.39481 21.3876 1.94444 21.3889H3.88889V7.77778C3.88889 5.63889 4.65046 3.80788 6.17361 2.28473C7.69676 0.761581 9.52778 6.72818e-06 11.6667 6.72818e-06C13.8056 6.72818e-06 15.6366 0.761581 17.1597 2.28473C18.6829 3.80788 19.4444 5.63889 19.4444 7.77778V27.2222C19.4444 28.2917 19.8256 29.2075 20.5878 29.9697C21.35 30.7319 22.2652 31.1124 23.3333 31.1111C24.4028 31.1111 25.3186 30.73 26.0808 29.9678C26.8431 29.2056 27.2235 28.2904 27.2222 27.2222V13.6111H25.2778C24.7269 13.6111 24.2647 13.4244 23.8914 13.0511C23.5181 12.6778 23.332 12.2163 23.3333 11.6667V3.88889H25.2778V1.94445C25.2778 1.39352 25.4644 0.931395 25.8378 0.558062C26.2111 0.184729 26.6726 -0.00128957 27.2222 6.72818e-06H31.1111C31.662 6.72818e-06 32.1242 0.186674 32.4975 0.560007C32.8708 0.93334 33.0569 1.39482 33.0556 1.94445V3.88889H35V11.6667C35 12.2176 34.8133 12.6797 34.44 13.0531C34.0667 13.4264 33.6052 13.6124 33.0556 13.6111H31.1111V27.2222C31.1111 29.3611 30.3495 31.1921 28.8264 32.7153C27.3032 34.2384 25.4722 35 23.3333 35C21.1944 35 19.3634 34.2384 17.8403 32.7153C16.3171 31.1921 15.5556 29.3611 15.5556 27.2222V7.77778C15.5556 6.70834 15.1744 5.7925 14.4122 5.03028C13.65 4.26806 12.7348 3.8876 11.6667 3.88889C10.5972 3.88889 9.68139 4.27 8.91917 5.03223C8.15694 5.79445 7.77648 6.70963 7.77778 7.77778V21.3889H9.72222C10.2731 21.3889 10.7353 21.5756 11.1086 21.9489C11.4819 22.3222 11.668 22.7837 11.6667 23.3333V31.1111H9.72222V33.0555C9.72222 33.6065 9.53555 34.0686 9.16222 34.4419C8.78889 34.8153 8.32741 35.0013 7.77778 35H3.88889Z" fill="#464D87"/>
</svg>
