<svg width="25" height="30" viewBox="0 0 25 30" fill="none" xmlns="http://www.w3.org/2000/svg">
<path d="M11.6455 29.8408L11.5418 29.7815C11.3185 29.6498 11.0974 29.5138 10.8783 29.3749C10.5284 29.1521 10.1839 28.9221 9.84533 28.6833C8.42195 27.6777 7.09197 26.5463 5.8717 25.3019C2.99282 22.3531 0 17.9213 0 12.2234C0 8.9809 1.28783 5.87296 3.58017 3.57963C5.87242 1.28774 8.98153 0 12.2234 0C15.4653 0 18.5743 1.28774 20.8666 3.57963C23.159 5.87296 24.4468 8.9809 24.4468 12.2234C24.4468 17.9227 21.4553 22.3531 18.5751 25.3019C17.3543 26.5463 16.0239 27.6777 14.5999 28.6833C14.0498 29.0711 13.4845 29.4386 12.9049 29.7815L12.7997 29.8423L12.7582 29.8654C12.5937 29.9537 12.4097 30 12.2227 30C12.0356 30 11.8515 29.9537 11.6871 29.8654L11.6455 29.8408Z" fill="url(#paint0_linear_2284_2083)"/>
<path d="M6.69107 17.4872C6.57278 17.4872 6.465 17.4609 6.37036 17.4031C5.43452 16.8406 6.50443 14.0173 7.03281 12.7738V10.9994C7.03281 9.6272 8.15004 8.5126 9.51963 8.5126H9.61426L9.68787 8.57307C10.0375 8.8596 10.9418 9.49051 12.2246 9.58777V7.51367H12.7504V9.59566C14.1147 9.53783 15.0769 8.86749 15.437 8.57044L15.5106 8.50998H15.6052C15.9154 8.50998 16.7041 8.58358 17.3613 9.24077C17.8318 9.71132 18.092 10.337 18.092 10.9968V12.7738C18.8675 14.6455 19.4038 16.7906 18.6047 17.2559C17.8239 17.7107 16.3492 16.278 15.4869 15.3132H9.64055C8.95707 16.0677 7.55857 17.4846 6.69107 17.4846V17.4872ZM9.43288 9.03836C8.39189 9.08568 7.56119 9.94529 7.56119 10.9994V12.8816L7.54016 12.9316C6.37825 15.6445 6.43608 16.83 6.64375 16.9536C6.93029 17.1245 8.18684 16.1571 9.32773 14.8769L9.40659 14.7901H15.7235L15.8024 14.8795C17.172 16.4305 18.1105 16.9404 18.3418 16.8037C18.5836 16.6618 18.6125 15.3816 17.59 12.9289L17.5689 12.879V10.9968C17.5689 10.4763 17.3639 9.98209 16.9932 9.61143C16.5253 9.14351 15.9575 9.05413 15.6972 9.03836C15.1505 9.46685 14.0805 10.1162 12.5927 10.124C11.0391 10.1398 9.91394 9.41164 9.43551 9.03836H9.43288ZM15.2083 13.1892C14.4643 13.1892 13.8571 12.5819 13.8571 11.838C13.8571 11.0941 14.4617 10.4868 15.2083 10.4868C15.9549 10.4868 16.5595 11.0941 16.5595 11.838C16.5595 12.5819 15.9522 13.1892 15.2083 13.1892ZM15.2083 11.0126C14.7535 11.0126 14.3829 11.3832 14.3829 11.838C14.3829 12.2928 14.7535 12.6634 15.2083 12.6634C15.6631 12.6634 16.0337 12.2928 16.0337 11.838C16.0337 11.3832 15.6631 11.0126 15.2083 11.0126ZM10.3792 13.0236H9.85348V12.1009H8.93078V11.5751H9.85348V10.7497H10.3792V11.5751H11.3019V12.1009H10.3792V13.0236Z" fill="white"/>
<defs>
<linearGradient id="paint0_linear_2284_2083" x1="12.2234" y1="30" x2="12.2234" y2="0" gradientUnits="userSpaceOnUse">
<stop offset="0.32" stop-color="#502182"/>
<stop offset="0.93" stop-color="#2A173E"/>
</linearGradient>
</defs>
</svg>
