<svg width="35" height="21" viewBox="0 0 35 21" fill="none" xmlns="http://www.w3.org/2000/svg">
<path d="M34.9332 9.96322L32.4303 1.26931C32.3285 0.904316 32.109 0.582545 31.8055 0.353289C31.502 0.124032 31.1312 -6.73173e-05 30.75 2.73947e-08H4.25003C3.46238 2.73947e-08 2.77976 0.521635 2.56972 1.26931L0.0667505 9.96322C-0.248308 11.0587 0.591848 12.1715 1.74706 12.1715H5.59778L3.49739 21H6.99805L8.17076 17.4776H26.8467L28.002 21H31.5026L29.4022 12.1715H33.2529C34.4082 12.1715 35.2483 11.0587 34.9332 9.96322ZM8.62584 14L9.09843 12.1715H25.9016L26.3742 14H8.62584Z" fill="#464D87"/>
</svg>
