<svg width="32" height="32" viewBox="0 0 32 32" fill="none" xmlns="http://www.w3.org/2000/svg">
<path d="M28.8 0H8C3.5888 0 0 3.5888 0 8V24C0 28.4112 3.5888 32 8 32H27.2C29.8464 32 32 29.8464 32 27.2C32 24.5536 29.8464 22.4 27.2 22.4H6.4V25.6H27.2C27.6243 25.6 28.0313 25.7686 28.3314 26.0686C28.6314 26.3687 28.8 26.7757 28.8 27.2C28.8 27.6243 28.6314 28.0313 28.3314 28.3314C28.0313 28.6314 27.6243 28.8 27.2 28.8H8C5.3536 28.8 3.2 26.6464 3.2 24C3.2 21.3536 5.3536 19.2 8 19.2H28.8C30.5648 19.2 32 17.7648 32 16V3.2C32 1.4352 30.5648 0 28.8 0ZM3.2 17.6H3.2048L3.2 17.6032V17.6Z" fill="#464D87"/>
</svg>
