<svg width="86" height="86" viewBox="0 0 86 86" fill="none" xmlns="http://www.w3.org/2000/svg">
<path d="M43 84.5C65.9198 84.5 84.5 65.9198 84.5 43C84.5 20.0802 65.9198 1.5 43 1.5C20.0802 1.5 1.5 20.0802 1.5 43C1.5 65.9198 20.0802 84.5 43 84.5Z" stroke="#BEC5FF" stroke-width="3" stroke-linecap="round" stroke-linejoin="round"/>
<path d="M43 77.5C62.0538 77.5 77.5 62.0538 77.5 43C77.5 23.9462 62.0538 8.5 43 8.5C23.9462 8.5 8.5 23.9462 8.5 43C8.5 62.0538 23.9462 77.5 43 77.5Z" stroke="#BEC5FF" stroke-width="3" stroke-linecap="round" stroke-linejoin="round"/>
<path d="M26.701 39.4174L23.9989 33.5942L27.6475 33.9843L28.8468 29.6855M35.118 36.6286L35.1036 30.5525L32.098 32.6549L28.9696 29.4688" stroke="#BEC5FF" stroke-width="2" stroke-miterlimit="10" stroke-linecap="round"/>
<path d="M66.5753 41.52C61.9152 39.3526 56.9228 41.0649 52.689 43.7092C52.2483 43.3841 51.8003 43.0662 51.3524 42.7555C49.7196 41.6067 48.0145 40.5519 46.2589 39.6488C46.3744 38.1821 46.2877 36.6938 45.9626 35.2561C45.8398 34.7142 45.6231 34.2012 45.0812 34.0134C44.561 33.8328 43.9541 34.0134 43.4267 34.0856C41.0063 34.4469 38.5499 35.0249 36.7075 36.8094C36.7003 36.8166 36.6931 36.8239 36.6859 36.8311C32.8422 36.6071 28.8685 37.5753 25.8413 40.4146C24.2518 41.9102 23.0308 43.9476 22.4167 46.2018C22.106 47.3289 21.9543 48.5426 22.0121 49.7203C22.041 50.2405 22.1421 50.7679 22.5684 51.0425C23.0742 51.3748 23.7822 51.4543 24.3385 51.6132C25.7474 52.0034 27.1707 52.3502 28.6084 52.6319C29.3092 52.7692 30.0101 52.8993 30.7109 53.0149C31.2672 53.1088 31.9247 53.3039 32.481 53.1305C33.0156 52.9643 33.3046 52.4585 33.3696 51.8517C33.4563 51.0425 33.4274 50.1971 33.4347 49.388C33.4563 47.6684 33.4347 45.9561 33.3769 44.2366C33.348 43.4708 32.3076 43.4635 32.3365 44.2366C32.3798 45.6021 32.4087 46.9676 32.4015 48.3331C32.4015 48.9978 32.3943 49.6625 32.3798 50.32C32.3726 50.7607 32.5315 51.895 32.0692 51.9961C31.6284 52.0973 31.0288 51.8661 30.5808 51.7939C29.9812 51.6927 29.3815 51.5771 28.7818 51.4615C27.6475 51.2303 26.5204 50.9702 25.4078 50.674C24.8515 50.5295 24.2879 50.3705 23.7316 50.2044C23.6016 50.1682 23.197 50.1177 23.0958 49.9949C22.9947 49.872 23.0453 49.3229 23.0525 49.1568C23.0597 48.073 23.2548 47.0037 23.5871 45.985C24.2374 43.9837 25.4511 42.192 26.9539 40.9276C30.2629 38.1316 34.6557 37.5464 38.6294 38.2255C42.7692 38.9263 46.6418 40.9204 50.2181 43.3479C50.7094 43.6803 51.1935 44.0199 51.6847 44.3667C51.5547 44.4534 51.4174 44.5473 51.2874 44.6412C46.6418 47.878 42.2201 52.4513 36.7437 53.6723C36.5919 53.7084 36.433 53.7373 36.2813 53.7662C36.2379 53.7735 35.6888 53.8313 35.7394 53.8891C35.7177 53.8674 35.7394 53.4339 35.7394 53.4773C35.7394 53.1594 35.7394 52.8487 35.7394 52.5308C35.7394 51.5843 35.7394 50.6379 35.7394 49.6842C35.7394 47.7118 35.7394 45.7322 35.7466 43.7598C35.7466 42.9939 34.7062 42.9867 34.7062 43.7598C34.7062 45.5732 34.7062 47.3939 34.699 49.2073V51.8155C34.699 52.2924 34.699 52.762 34.699 53.2388C34.699 53.6073 34.6629 54.0119 34.7857 54.3587C35.0097 54.9873 35.5227 55.0595 36.0501 54.9945C36.7798 54.9006 37.5095 54.7272 38.2175 54.4887C39.5614 54.0408 40.8546 53.405 42.1045 52.6753C45.8037 50.5223 49.0766 47.4372 52.6746 45.0675C55.8318 47.4011 58.8591 50.1249 61.0843 53.5639C61.1349 53.6362 61.1927 53.694 61.2505 53.7373C61.4456 54.3442 62.3415 54.3009 62.262 53.5928C62.1175 52.3429 61.9874 51.0858 61.8574 49.8287C61.7924 49.2001 61.7274 48.5715 61.6696 47.943C61.6118 47.3722 61.4889 46.7436 61.5467 46.1657C61.6479 45.1253 63.0784 44.6701 63.772 44.2727L66.7414 42.5893C67.1894 42.3365 66.9943 41.6718 66.6186 41.4984L66.5753 41.52ZM45.0378 39.0564C42.9498 38.0954 40.7752 37.373 38.5354 37.0262C38.5138 37.0262 38.4921 37.0262 38.4776 37.0189C39.7492 36.1664 41.2737 35.7763 42.7692 35.5089C43.2316 35.4295 43.7012 35.3572 44.1709 35.2922C44.3515 35.2705 44.5465 35.191 44.6838 35.3283C44.8066 35.4367 44.8211 35.928 44.85 36.0942C45.0306 37.0767 45.0812 38.0665 45.0378 39.0636V39.0564ZM62.84 43.478C62.0236 43.9404 60.976 44.3739 60.6147 45.4287C60.4269 45.9778 60.4702 46.563 60.5208 47.141C60.5858 47.8491 60.6581 48.5571 60.7303 49.2579C60.8098 50.0238 60.8893 50.7896 60.9687 51.5482C58.8952 48.7594 56.3448 46.4619 53.6716 44.4317C54.7481 43.7814 55.8607 43.2035 57.0239 42.7483C59.6177 41.7296 62.4426 41.3683 65.0869 42.192C64.3355 42.6182 63.5914 43.0445 62.84 43.4708V43.478Z" fill="#BEC5FF" stroke="#BEC5FF" stroke-width="0.5" stroke-miterlimit="10"/>
<path d="M29.3092 45.7262C29.7082 45.7262 30.0317 45.4028 30.0317 45.0037C30.0317 44.6047 29.7082 44.2812 29.3092 44.2812C28.9102 44.2812 28.5867 44.6047 28.5867 45.0037C28.5867 45.4028 28.9102 45.7262 29.3092 45.7262Z" fill="#BEC5FF" stroke="#BEC5FF" stroke-miterlimit="10"/>
</svg>
