<svg width="86" height="86" viewBox="0 0 86 86" fill="none" xmlns="http://www.w3.org/2000/svg">
<path d="M43 84.5C65.9198 84.5 84.5 65.9198 84.5 43C84.5 20.0802 65.9198 1.5 43 1.5C20.0802 1.5 1.5 20.0802 1.5 43C1.5 65.9198 20.0802 84.5 43 84.5Z" stroke="url(#paint0_linear_1740_1863)" stroke-width="3" stroke-linecap="round" stroke-linejoin="round"/>
<g clip-path="url(#clip0_1740_1863)">
<path d="M43 79C62.8822 79 79 62.8822 79 43C79 23.1178 62.8822 7 43 7C23.1178 7 7 23.1178 7 43C7 62.8822 23.1178 79 43 79Z" fill="url(#paint1_linear_1740_1863)"/>
<path d="M19.8544 36.059L16.264 28.3214L21.112 28.8398L22.7056 23.1278M31.0384 32.3534L31.0192 24.2798L27.0256 27.0734L22.8688 22.8398" stroke="white" stroke-width="2" stroke-miterlimit="10" stroke-linecap="round"/>
<path d="M72.8368 38.8513C66.6448 35.9713 60.0112 38.2465 54.3856 41.7601C53.8 41.3281 53.2048 40.9057 52.6096 40.4929C50.44 38.9665 48.1744 37.5649 45.8416 36.3649C45.9952 34.4161 45.88 32.4385 45.448 30.5281C45.2848 29.8081 44.9968 29.1265 44.2768 28.8769C43.5856 28.6369 42.7792 28.8769 42.0784 28.9729C38.8624 29.4529 35.5984 30.2209 33.1504 32.5921C33.1408 32.6017 33.1312 32.6113 33.1216 32.6209C28.0144 32.3233 22.7344 33.6097 18.712 37.3825C16.6 39.3697 14.9776 42.0769 14.1616 45.0721C13.7488 46.5697 13.5472 48.1825 13.624 49.7473C13.6624 50.4385 13.7968 51.1393 14.3632 51.5041C15.0352 51.9457 15.976 52.0513 16.7152 52.2625C18.5872 52.7809 20.4784 53.2417 22.3888 53.6161C23.32 53.7985 24.2512 53.9713 25.1824 54.1249C25.9216 54.2497 26.7952 54.5089 27.5344 54.2785C28.2448 54.0577 28.6288 53.3857 28.7152 52.5793C28.8304 51.5041 28.792 50.3809 28.8016 49.3057C28.8304 47.0209 28.8016 44.7457 28.7248 42.4609C28.6864 41.4433 27.304 41.4337 27.3424 42.4609C27.4 44.2753 27.4384 46.0897 27.4288 47.9041C27.4288 48.7873 27.4192 49.6705 27.4 50.5441C27.3904 51.1297 27.6016 52.6369 26.9872 52.7713C26.4016 52.9057 25.6048 52.5985 25.0096 52.5025C24.2128 52.3681 23.416 52.2145 22.6192 52.0609C21.112 51.7537 19.6144 51.4081 18.136 51.0145C17.3968 50.8225 16.648 50.6113 15.9088 50.3905C15.736 50.3425 15.1984 50.2753 15.064 50.1121C14.9296 49.9489 14.9968 49.2193 15.0064 48.9985C15.016 47.5585 15.2752 46.1377 15.7168 44.7841C16.5808 42.1249 18.1936 39.7441 20.1904 38.0641C24.5872 34.3489 30.424 33.5713 35.704 34.4737C41.2048 35.4049 46.3504 38.0545 51.1024 41.2801C51.7552 41.7217 52.3984 42.1729 53.0512 42.6337C52.8784 42.7489 52.696 42.8737 52.5232 42.9985C46.3504 47.2993 40.4752 53.3761 33.1984 54.9985C32.9968 55.0465 32.7856 55.0849 32.584 55.1233C32.5264 55.1329 31.7968 55.2097 31.864 55.2865C31.8352 55.2577 31.864 54.6817 31.864 54.7393C31.864 54.3169 31.864 53.9041 31.864 53.4817C31.864 52.2241 31.864 50.9665 31.864 49.6993C31.864 47.0785 31.864 44.4481 31.8736 41.8273C31.8736 40.8097 30.4912 40.8001 30.4912 41.8273C30.4912 44.2369 30.4912 46.6561 30.4816 49.0657V52.5313C30.4816 53.1649 30.4816 53.7889 30.4816 54.4225C30.4816 54.9121 30.4336 55.4497 30.5968 55.9105C30.8944 56.7457 31.576 56.8417 32.2768 56.7553C33.2464 56.6305 34.216 56.4001 35.1568 56.0833C36.9424 55.4881 38.6608 54.6433 40.3216 53.6737C45.2368 50.8129 49.5856 46.7137 54.3664 43.5649C58.5616 46.6657 62.584 50.2849 65.5408 54.8545C65.608 54.9505 65.6848 55.0273 65.7616 55.0849C66.0208 55.8913 67.2112 55.8337 67.1056 54.8929C66.9136 53.2321 66.7408 51.5617 66.568 49.8913C66.4816 49.0561 66.3952 48.2209 66.3184 47.3857C66.2416 46.6273 66.0784 45.7921 66.1552 45.0241C66.2896 43.6417 68.1904 43.0369 69.112 42.5089L73.0576 40.2721C73.6528 39.9361 73.3936 39.0529 72.8944 38.8225L72.8368 38.8513ZM44.2192 35.5777C41.4448 34.3009 38.5552 33.3409 35.5792 32.8801C35.5504 32.8801 35.5216 32.8801 35.5024 32.8705C37.192 31.7377 39.2176 31.2193 41.2048 30.8641C41.8192 30.7585 42.4432 30.6625 43.0672 30.5761C43.3072 30.5473 43.5664 30.4417 43.7488 30.6241C43.912 30.7681 43.9312 31.4209 43.9696 31.6417C44.2096 32.9473 44.2768 34.2625 44.2192 35.5873V35.5777ZM67.8736 41.4529C66.7888 42.0673 65.3968 42.6433 64.9168 44.0449C64.6672 44.7745 64.7248 45.5521 64.792 46.3201C64.8784 47.2609 64.9744 48.2017 65.0704 49.1329C65.176 50.1505 65.2816 51.1681 65.3872 52.1761C62.632 48.4705 59.2432 45.4177 55.6912 42.7201C57.1216 41.8561 58.6 41.0881 60.1456 40.4833C63.592 39.1297 67.3456 38.6497 70.8592 39.7441C69.8608 40.3105 68.872 40.8769 67.8736 41.4433V41.4529Z" fill="white" stroke="white" stroke-width="0.5" stroke-miterlimit="10"/>
<path d="M23.32 44.4395C23.8502 44.4395 24.28 44.0097 24.28 43.4795C24.28 42.9493 23.8502 42.5195 23.32 42.5195C22.7898 42.5195 22.36 42.9493 22.36 43.4795C22.36 44.0097 22.7898 44.4395 23.32 44.4395Z" fill="white" stroke="white" stroke-miterlimit="10"/>
</g>
<defs>
<linearGradient id="paint0_linear_1740_1863" x1="43" y1="83" x2="43" y2="3" gradientUnits="userSpaceOnUse">
<stop offset="0.32" stop-color="#502182"/>
<stop offset="0.93" stop-color="#2A173E"/>
</linearGradient>
<linearGradient id="paint1_linear_1740_1863" x1="43" y1="79" x2="43" y2="7" gradientUnits="userSpaceOnUse">
<stop offset="0.32" stop-color="#502182"/>
<stop offset="0.93" stop-color="#2A173E"/>
</linearGradient>
<clipPath id="clip0_1740_1863">
<rect width="72" height="72" fill="white" transform="translate(7 7)"/>
</clipPath>
</defs>
</svg>
