<svg width="35" height="28" viewBox="0 0 35 28" fill="none" xmlns="http://www.w3.org/2000/svg">
<path d="M11.375 17.3878H32.375C32.8563 17.3878 33.25 16.9966 33.25 16.5184V2.60817C33.25 2.13001 32.8563 1.73878 32.375 1.73878H24.5V8.69391L21.875 6.95513L19.25 8.69391V1.73878H11.375C10.8938 1.73878 10.5 2.13001 10.5 2.60817V16.5184C10.5 16.9966 10.8938 17.3878 11.375 17.3878ZM34.125 20.8654H7V0.869391C7 0.391226 6.60625 0 6.125 0H0.875C0.39375 0 0 0.391226 0 0.869391V2.60817C0 3.08634 0.39375 3.47756 0.875 3.47756H3.5V23.4736C3.5 23.9517 3.89375 24.3429 4.375 24.3429H8.90859C8.81016 24.6146 8.75 24.9081 8.75 25.2123C8.75 26.6523 9.92578 27.8205 11.375 27.8205C12.8242 27.8205 14 26.6523 14 25.2123C14 24.9081 13.9344 24.6146 13.8414 24.3429H24.6641C24.5656 24.6146 24.5055 24.9081 24.5055 25.2123C24.5055 26.6523 25.6812 27.8205 27.1305 27.8205C28.5797 27.8205 29.7555 26.6523 29.7555 25.2123C29.7555 24.9081 29.6898 24.6146 29.5969 24.3429H34.125C34.6063 24.3429 35 23.9517 35 23.4736V21.7348C35 21.2566 34.6063 20.8654 34.125 20.8654Z" fill="#464D87"/>
</svg>
