<svg width="20" height="20" viewBox="0 0 20 20" fill="none" xmlns="http://www.w3.org/2000/svg">
<path fill-rule="evenodd" clip-rule="evenodd" d="M10 20C8.61667 20 7.31667 19.7373 6.10001 19.212C4.88333 18.6867 3.825 17.9743 2.925 17.075C2.025 16.175 1.31267 15.1167 0.788002 13.9C0.263336 12.6833 0.000663757 11.3833 0 10C0 8.61667 0.262665 7.31668 0.788002 6.10001C1.31333 4.88333 2.02567 3.82501 2.925 2.92499C3.825 2.02499 4.88333 1.31265 6.10001 0.787994C7.31667 0.263336 8.61667 0.000671387 10 0C11.3833 0 12.6833 0.262665 13.9 0.787994C15.1167 1.31332 16.175 2.02567 17.075 2.92499C17.975 3.82501 18.6877 4.88333 19.213 6.10001C19.7383 7.31668 20.0007 8.61667 20 10C20 11.3833 19.7373 12.6833 19.212 13.9C18.6867 15.1167 17.9743 16.175 17.075 17.075C16.175 17.975 15.1167 18.6877 13.9 19.213C12.6833 19.7383 11.3833 20.0007 10 20ZM14 11C14.2833 11 14.521 10.904 14.713 10.712C14.905 10.52 15.0007 10.2827 15 10C15 9.71667 14.904 9.479 14.712 9.28699C14.52 9.095 14.2827 8.99933 14 9H6C5.71667 9 5.479 9.09601 5.287 9.28799C5.095 9.48001 4.99934 9.71735 5 10C5 10.2833 5.096 10.521 5.288 10.713C5.48 10.905 5.71733 11.0007 6 11H14Z" fill="#7C87F2"/>
</svg>
