<svg width="25" height="30" viewBox="0 0 25 30" fill="none" xmlns="http://www.w3.org/2000/svg">
<path d="M11.6455 29.8408L11.5418 29.7815C11.3185 29.6498 11.0974 29.5138 10.8783 29.3749C10.5284 29.1521 10.1839 28.9221 9.84533 28.6833C8.42195 27.6777 7.09197 26.5463 5.8717 25.3019C2.99282 22.3531 0 17.9213 0 12.2234C0 8.9809 1.28783 5.87296 3.58017 3.57963C5.87242 1.28774 8.98153 0 12.2234 0C15.4653 0 18.5743 1.28774 20.8666 3.57963C23.159 5.87296 24.4468 8.9809 24.4468 12.2234C24.4468 17.9227 21.4553 22.3531 18.5751 25.3019C17.3543 26.5463 16.0239 27.6777 14.5999 28.6833C14.0498 29.0711 13.4845 29.4386 12.9049 29.7815L12.7997 29.8423L12.7582 29.8654C12.5937 29.9537 12.4097 30 12.2227 30C12.0356 30 11.8515 29.9537 11.6871 29.8654L11.6455 29.8408Z" fill="url(#paint0_linear_1905_2224)"/>
<path fill-rule="evenodd" clip-rule="evenodd" d="M16.0142 5L16.0207 6.13261L16.9462 6.77014L15.8841 7.12311L15.6726 7.85333H17.2073C17.6451 7.85333 18 8.20824 18 8.64605C18 8.97841 17.7954 9.26302 17.5053 9.38082V16.4168C17.7954 16.5346 18 16.8192 18 17.1515C18 17.5894 17.6451 17.9443 17.2073 17.9443H8.47806C8.04025 17.9443 7.68535 17.5894 7.68535 17.1515C7.68535 16.8192 7.8899 16.5346 8.18 16.4168V9.38082C7.8899 9.26302 7.68535 8.97841 7.68535 8.64605C7.68535 8.20824 8.04025 7.85333 8.47806 7.85333H15.3074L14.902 7.29575L13.7814 7.32814L14.4353 6.41195L14.0521 5.34347L15.1249 5.69132L16.0142 5ZM17.3932 8.91435H8.29212C8.20723 8.85541 8.15165 8.75721 8.15165 8.64605C8.15165 8.46577 8.29779 8.31963 8.47806 8.31963H17.2073C17.3876 8.31963 17.5337 8.46577 17.5337 8.64605C17.5337 8.75721 17.4781 8.85541 17.3932 8.91435ZM8.6463 9.43876V12.3966C9.87896 12.3117 10.9417 11.0883 11.0864 9.43876H8.6463ZM11.5539 9.43876C11.4298 10.9647 10.5777 12.2692 9.39182 12.7091C9.70386 12.9387 9.97075 13.2817 10.182 13.6852C10.5502 14.3882 10.7813 15.327 10.8118 16.3588H14.8758C14.9062 15.327 15.1374 14.3882 15.5056 13.6852C15.7168 13.2817 15.9837 12.9387 16.2958 12.7091C15.1099 12.2691 14.2578 10.9647 14.1337 9.43876H11.5539ZM14.6012 9.43876C14.7459 11.0873 15.8073 12.3102 17.039 12.3964V9.43876H14.6012ZM16.5482 13.1028C16.3224 13.2749 16.1072 13.5414 15.9187 13.9015C15.5906 14.5279 15.3727 15.3898 15.3423 16.3588H17.039V13.1679C16.9947 13.2448 16.9513 13.3364 16.9104 13.4429C16.7527 13.8534 16.6503 14.4365 16.6503 15.0925H16.184C16.184 14.3944 16.2921 13.752 16.4751 13.2756C16.498 13.216 16.5224 13.1583 16.5482 13.1028ZM10.3452 16.3588C10.3149 15.3898 10.0969 14.5279 9.76892 13.9015C9.66661 13.7061 9.55646 13.5383 9.44102 13.3981C9.59526 13.8582 9.68486 14.4477 9.68486 15.0834H9.21856C9.21856 14.4274 9.11622 13.8443 8.95849 13.4338C8.87932 13.2277 8.79073 13.077 8.70419 12.9819C8.68374 12.9594 8.66443 12.9411 8.6463 12.9262V16.3588H10.3452ZM8.47652 16.8251C8.29696 16.826 8.15165 16.9718 8.15165 17.1515C8.15165 17.3318 8.29779 17.478 8.47806 17.478H17.2073C17.3876 17.478 17.5337 17.3318 17.5337 17.1515C17.5337 16.9718 17.3884 16.826 17.2088 16.8251H8.47652ZM15.5533 5.9489L15.2161 6.21108L14.8116 6.07994L14.9566 6.48423L14.7063 6.8349L15.1345 6.82253L15.3856 7.16797L15.5044 6.75791L15.9105 6.62294L15.5558 6.3786L15.5533 5.9489ZM6.10029 9.58126L6.84427 10.3386L7.88855 10.1584L7.39831 11.0989L7.89242 12.037L6.84748 11.8601L6.10791 12.6196L5.95114 11.5722L5 11.1017L5.95025 10.6316L6.10029 9.58126ZM6.42854 10.5808L6.37713 10.9406L6.05157 11.1017L6.37624 11.2623L6.42987 11.6205L6.68408 11.3595L7.0403 11.4198L6.87188 11.1L7.03969 10.7781L6.68282 10.8396L6.42854 10.5808Z" fill="white"/>
<defs>
<linearGradient id="paint0_linear_1905_2224" x1="12.2234" y1="30" x2="12.2234" y2="0" gradientUnits="userSpaceOnUse">
<stop offset="0.32" stop-color="#502182"/>
<stop offset="0.93" stop-color="#2A173E"/>
</linearGradient>
</defs>
</svg>
