<svg width="30" height="29" viewBox="0 0 30 29" fill="none" xmlns="http://www.w3.org/2000/svg">
<path d="M21.6 6.49169C21.6 8.7094 20.4694 10.6674 18.7442 11.8384C18.787 12.0063 18.8229 12.2458 18.8749 12.5932C19.3404 15.7009 21.7204 20.1503 28.7151 20.93C29.1938 20.9834 29.4331 21.01 29.5912 21.1052C29.7434 21.1967 29.8488 21.3146 29.923 21.476C30 21.6437 30 21.8667 30 22.3129V26.9857C30 27.4503 30 27.6827 29.911 27.8607C29.8293 28.0242 29.6968 28.1567 29.5334 28.2384C29.3553 28.3274 29.123 28.3274 28.6583 28.3274H1.34167C0.877047 28.3274 0.644737 28.3274 0.466652 28.2384C0.303194 28.1567 0.170665 28.0242 0.0889895 27.8607C4.82834e-06 27.6827 4.82834e-06 27.4503 4.82834e-06 26.9857L0 26.5569H30V24.7865H0L4.82834e-06 22.3129C4.82834e-06 21.8667 4.82834e-06 21.6437 0.0770442 21.476C0.151166 21.3146 0.256644 21.1967 0.408788 21.1052C0.56692 21.01 0.806252 20.9834 1.28492 20.93C8.27958 20.1503 10.6596 15.7009 11.1251 12.5932C11.1771 12.2458 11.213 12.0063 11.2558 11.8384C9.53062 10.6674 8.40001 8.7094 8.40001 6.49169C8.40001 2.90643 11.3549 0 15 0C18.6451 0 21.6 2.90643 21.6 6.49169Z" fill="#27CD7B"/>
</svg>
