<svg width="29" height="29" viewBox="0 0 29 29" fill="none" xmlns="http://www.w3.org/2000/svg">
<path d="M14.4961 7.05997C10.379 7.05997 7.05634 10.3826 7.05634 14.4997C7.05634 18.6168 10.379 21.9395 14.4961 21.9395C18.6132 21.9395 21.9359 18.6168 21.9359 14.4997C21.9359 10.3826 18.6132 7.05997 14.4961 7.05997ZM14.4961 19.335C11.8336 19.335 9.6608 17.1622 9.6608 14.4997C9.6608 11.8372 11.8336 9.66443 14.4961 9.66443C17.1586 9.66443 19.3314 11.8372 19.3314 14.4997C19.3314 17.1622 17.1586 19.335 14.4961 19.335ZM22.2406 5.02138C21.2793 5.02138 20.503 5.79764 20.503 6.75889C20.503 7.72015 21.2793 8.49641 22.2406 8.49641C23.2018 8.49641 23.9781 7.72378 23.9781 6.75889C23.9784 6.53064 23.9336 6.30457 23.8464 6.09364C23.7592 5.8827 23.6312 5.69105 23.4698 5.52965C23.3084 5.36824 23.1168 5.24027 22.9058 5.15305C22.6949 5.06584 22.4688 5.02109 22.2406 5.02138ZM28.9984 14.4997C28.9984 12.4974 29.0165 10.5132 28.9041 8.51455C28.7916 6.19302 28.262 4.13267 26.5644 2.43505C24.8632 0.73381 22.8064 0.20784 20.4849 0.0953909C18.4826 -0.017058 16.4984 0.00107894 14.4997 0.00107894C12.4974 0.00107894 10.5132 -0.017058 8.51455 0.0953909C6.19302 0.20784 4.13267 0.737438 2.43505 2.43505C0.73381 4.1363 0.20784 6.19302 0.0953909 8.51455C-0.017058 10.5169 0.00107894 12.501 0.00107894 14.4997C0.00107894 16.4984 -0.017058 18.4862 0.0953909 20.4849C0.20784 22.8064 0.737438 24.8668 2.43505 26.5644C4.1363 28.2656 6.19302 28.7916 8.51455 28.9041C10.5169 29.0165 12.501 28.9984 14.4997 28.9984C16.502 28.9984 18.4862 29.0165 20.4849 28.9041C22.8064 28.7916 24.8668 28.262 26.5644 26.5644C28.2657 24.8632 28.7916 22.8064 28.9041 20.4849C29.0201 18.4862 28.9984 16.502 28.9984 14.4997ZM25.8063 23.0531C25.5415 23.7133 25.2223 24.2066 24.7108 24.7144C24.1994 25.2259 23.7097 25.5451 23.0495 25.8099C21.1415 26.568 16.6109 26.3975 14.4961 26.3975C12.3813 26.3975 7.84711 26.568 5.93911 25.8135C5.27892 25.5487 4.7856 25.2295 4.27776 24.7181C3.7663 24.2066 3.44709 23.7169 3.18229 23.0567C2.4278 21.1451 2.59829 16.6145 2.59829 14.4997C2.59829 12.385 2.4278 7.85074 3.18229 5.94273C3.44709 5.28255 3.7663 4.78923 4.27776 4.28139C4.78923 3.77356 5.27892 3.45072 5.93911 3.18592C7.84711 2.43143 12.3813 2.60191 14.4961 2.60191C16.6109 2.60191 21.1451 2.43143 23.0531 3.18592C23.7133 3.45072 24.2066 3.76993 24.7144 4.28139C25.2259 4.79285 25.5451 5.28255 25.8099 5.94273C26.5644 7.85074 26.3939 12.385 26.3939 14.4997C26.3939 16.6145 26.5644 21.1451 25.8063 23.0531Z" fill="#7C87F2"/>
</svg>
