<svg width="30" height="38" viewBox="0 0 30 38" fill="none" xmlns="http://www.w3.org/2000/svg">
<path d="M28.125 20.7581V3.77419C28.125 1.69273 26.4431 0 24.375 0H5.625C3.55687 0 1.875 1.69273 1.875 3.77419V20.7581C1.37772 20.7581 0.900806 20.9569 0.549175 21.3108C0.197544 21.6647 0 22.1447 0 22.6452V37.7419H3.75V28.3065H26.25V37.7419H30V22.6452C30 22.1447 29.8025 21.6647 29.4508 21.3108C29.0992 20.9569 28.6223 20.7581 28.125 20.7581ZM24.375 3.77419V20.7581H20.625V3.77419H24.375ZM16.875 3.77419V20.7581H13.125V3.77419H16.875ZM5.625 3.77419H9.375V20.7581H5.625V3.77419Z" fill="#464D87"/>
</svg>
