<svg width="25" height="30" viewBox="0 0 25 30" fill="none" xmlns="http://www.w3.org/2000/svg">
<path d="M11.6455 29.8408L11.5418 29.7815C11.3185 29.6498 11.0974 29.5138 10.8783 29.3749C10.5284 29.1521 10.1839 28.9221 9.84533 28.6833C8.42195 27.6777 7.09197 26.5463 5.8717 25.3019C2.99282 22.3531 0 17.9213 0 12.2234C0 8.9809 1.28783 5.87296 3.58017 3.57963C5.87242 1.28774 8.98153 0 12.2234 0C15.4653 0 18.5743 1.28774 20.8666 3.57963C23.159 5.87296 24.4468 8.9809 24.4468 12.2234C24.4468 17.9227 21.4553 22.3531 18.5751 25.3019C17.3543 26.5463 16.0239 27.6777 14.5999 28.6833C14.0498 29.0711 13.4845 29.4386 12.9049 29.7815L12.7997 29.8423L12.7582 29.8654C12.5937 29.9537 12.4097 30 12.2227 30C12.0356 30 11.8515 29.9537 11.6871 29.8654L11.6455 29.8408Z" fill="url(#paint0_linear_1905_2225)"/>
<path d="M6.61486 11.7768C6.52254 11.7768 6.43508 11.7258 6.39378 11.6359L5.5023 9.71198C5.49257 9.69255 5.48529 9.66826 5.48042 9.64639C5.47556 9.61724 5.47556 9.58567 5.48042 9.55893C5.48771 9.52492 5.49985 9.49335 5.51928 9.46664C5.53873 9.43748 5.56544 9.4132 5.59701 9.39619C5.62132 9.3816 5.64803 9.3719 5.67719 9.36704C5.70148 9.36217 5.72335 9.36217 5.74764 9.36704L6.74603 9.47392L7.08611 8.24961C7.09581 8.21559 7.11282 8.18402 7.13469 8.15731C7.14684 8.12572 7.16626 8.09657 7.193 8.06986C7.28774 7.97512 7.4432 7.97754 7.5355 8.07228L8.42459 8.98079L9.24807 8.40507C9.26994 8.39051 9.29181 8.37837 9.31852 8.37106C9.34767 8.36136 9.37682 8.35891 9.40598 8.36136C9.43999 8.36136 9.47398 8.3735 9.50313 8.38807C9.53229 8.40266 9.55902 8.4245 9.57845 8.45123C9.59787 8.47552 9.61246 8.50226 9.62216 8.53139C9.62947 8.5557 9.63431 8.57999 9.63189 8.6067L9.63675 10.6132C9.63675 10.7468 9.52742 10.8561 9.39383 10.8561C9.26021 10.8561 9.15091 10.7468 9.15091 10.6132V9.06825L8.53634 9.49579C8.51933 9.50793 8.4999 9.52008 8.47803 9.52736C8.44402 9.53951 8.40516 9.54437 8.37115 9.54193C8.33471 9.53951 8.3007 9.52736 8.26912 9.50793C8.2497 9.49579 8.23269 9.48365 8.2181 9.46664L7.46507 8.69658L7.15898 9.79944C7.15412 9.82128 7.14442 9.84315 7.13227 9.86258C7.11282 9.89418 7.08853 9.92088 7.05938 9.94031C7.03023 9.95976 6.99624 9.97433 6.9598 9.97919C6.93793 9.98161 6.91606 9.98405 6.89421 9.97919L6.11687 9.89659L6.83105 11.4343C6.88691 11.5557 6.83346 11.7015 6.71202 11.7573C6.678 11.7719 6.64401 11.7792 6.60999 11.7792L6.61486 11.7768Z" fill="white"/>
<path d="M19.8077 12.2263C18.2652 11.5073 16.6134 12.0757 15.2117 12.9526C15.066 12.8457 14.9178 12.7389 14.7696 12.6368C14.2279 12.2579 13.6668 11.9056 13.0838 11.6093C13.1226 11.1235 13.0935 10.6303 12.9866 10.1566C12.9453 9.9793 12.8749 9.80683 12.6951 9.74369C12.5226 9.68294 12.321 9.74369 12.1485 9.76798C11.3493 9.88701 10.5355 10.0789 9.92583 10.6692C9.92339 10.6716 9.92097 10.6741 9.91855 10.6765C8.64566 10.6036 7.33148 10.9218 6.33064 11.8643C5.80594 12.3599 5.40027 13.0328 5.19623 13.7785C5.09418 14.1502 5.04319 14.5534 5.06261 14.9421C5.07234 15.1146 5.10391 15.2871 5.24723 15.3818C5.41484 15.4911 5.64806 15.5203 5.83267 15.5713C6.29907 15.7024 6.77032 15.8142 7.24402 15.9089C7.4748 15.9551 7.70799 15.9964 7.93877 16.0352C8.12339 16.0644 8.33957 16.1324 8.52419 16.0741C8.70152 16.0183 8.79626 15.8506 8.82055 15.6514C8.84971 15.3842 8.83998 15.1049 8.84242 14.8352C8.84971 14.2668 8.84243 13.6984 8.82297 13.1324C8.81327 12.8798 8.47075 12.8773 8.47803 13.1324C8.49262 13.5842 8.50232 14.036 8.4999 14.4879C8.4999 14.7065 8.49748 14.9275 8.49262 15.1462C8.49018 15.2919 8.54362 15.666 8.38815 15.7024C8.24242 15.7365 8.04321 15.6611 7.89747 15.6344C7.69827 15.6004 7.49909 15.564 7.30232 15.5227C6.92823 15.4474 6.55413 15.3599 6.1849 15.2628C6.00028 15.2142 5.81567 15.1632 5.63105 15.1073C5.58731 15.0951 5.45372 15.0781 5.4197 15.0393C5.38569 15.0004 5.40269 14.8182 5.40514 14.7624C5.40756 14.4028 5.47314 14.0506 5.58003 13.713C5.7938 13.0498 6.19704 12.4595 6.69259 12.0393C7.78814 11.1137 9.24081 10.9218 10.555 11.1453C11.9226 11.3785 13.2077 12.0368 14.3882 12.8409C14.551 12.9502 14.7113 13.0619 14.8741 13.1785C14.8304 13.2077 14.7866 13.2393 14.7429 13.2684C13.2052 14.3373 11.7428 15.8506 9.9307 16.2587C9.87967 16.2709 9.82865 16.2806 9.77765 16.2903C9.76306 16.2927 9.58089 16.3122 9.5979 16.3316C9.59059 16.3243 9.5979 16.181 9.5979 16.1956C9.5979 16.0911 9.5979 15.9867 9.5979 15.8822C9.5979 15.5688 9.5979 15.2555 9.5979 14.9421C9.5979 14.2887 9.5979 13.6352 9.60032 12.9818C9.60032 12.7267 9.25537 12.7267 9.25537 12.9818C9.25537 13.5842 9.25537 14.1842 9.25537 14.7866V15.649C9.25537 15.8069 9.25537 15.9624 9.25537 16.1203C9.25537 16.2417 9.24323 16.3753 9.28453 16.4919C9.35984 16.6984 9.52987 16.7251 9.70234 16.7033C9.94526 16.6717 10.1833 16.6134 10.419 16.5357C10.8635 16.3875 11.2935 16.1761 11.704 15.9357C12.9283 15.2215 14.0093 14.2012 15.1996 13.419C16.2441 14.1915 17.2474 15.0903 17.9834 16.232C18.0004 16.2563 18.0174 16.2757 18.0393 16.2903C18.1025 16.4919 18.4012 16.4774 18.3745 16.2442C18.3284 15.8288 18.2822 15.4134 18.2409 14.998C18.219 14.7915 18.1996 14.5826 18.1777 14.3737C18.1583 14.1842 18.117 13.9753 18.1364 13.7858C18.1705 13.4409 18.6442 13.2903 18.8725 13.1615L19.8539 12.6028C20.0021 12.5178 19.9365 12.2992 19.8126 12.2409L19.8077 12.2263ZM12.6805 11.4101C11.9882 11.0919 11.2716 10.8538 10.5307 10.7372C10.5234 10.7372 10.5185 10.7372 10.5113 10.7348C10.9339 10.453 11.4368 10.3218 11.9299 10.2344C12.083 10.2077 12.2384 10.1833 12.3939 10.1615C12.4546 10.1542 12.5178 10.1275 12.5639 10.1736C12.6028 10.2101 12.6076 10.3728 12.6198 10.4287C12.6781 10.7542 12.6951 11.0822 12.6829 11.4101H12.6805ZM18.5713 12.8749C18.2992 13.0279 17.9543 13.1713 17.8352 13.5211C17.7721 13.7032 17.7867 13.8976 17.8036 14.0871C17.8255 14.3202 17.8498 14.5559 17.8717 14.7891C17.8984 15.0417 17.9227 15.2944 17.9518 15.547C17.2644 14.6239 16.4215 13.866 15.5372 13.1931C15.8943 12.9769 16.2611 12.7874 16.6449 12.6368C17.5049 12.2992 18.4377 12.1801 19.3146 12.4546C19.0668 12.5955 18.819 12.7364 18.5713 12.8773V12.8749Z" fill="white"/>
<path d="M9.60034 16.7565C9.47644 16.7565 9.30153 16.7176 9.2238 16.499C9.18494 16.3921 9.18736 16.2804 9.1898 16.1711V15.6366L9.19464 12.9694C9.19464 12.8722 9.23838 12.7921 9.31125 12.7483C9.3817 12.707 9.47158 12.707 9.54445 12.7483C9.61976 12.7921 9.66106 12.8722 9.66106 12.9694L9.6562 16.1856H9.60762L9.6562 16.1905C9.6562 16.1905 9.6562 16.2172 9.6562 16.2391C9.68291 16.2342 9.7145 16.2294 9.75336 16.2245H9.76794C9.81894 16.2148 9.86755 16.2026 9.91855 16.1929C11.2352 15.899 12.3817 15.0026 13.487 14.1354C13.8854 13.822 14.2984 13.499 14.7089 13.2148C14.7283 13.2002 14.7478 13.188 14.7696 13.1735C14.6311 13.0763 14.4951 12.9816 14.3566 12.8868C12.9866 11.9564 11.7404 11.405 10.5477 11.201C9.68535 11.0552 8.04323 10.975 6.7339 12.0827C6.23347 12.5054 5.84481 13.0909 5.63833 13.7273C5.5266 14.0722 5.4683 14.4196 5.46585 14.7573C5.46585 14.7694 5.46585 14.7864 5.46585 14.8059C5.46585 14.8472 5.45857 14.971 5.47072 15.0002C5.48531 15.0099 5.56304 15.0269 5.59461 15.0342C5.61648 15.0391 5.63591 15.0439 5.65047 15.0464C5.83267 15.0998 6.01728 15.1508 6.2019 15.1994C6.56871 15.2966 6.94523 15.384 7.31691 15.4593C7.51367 15.5006 7.71285 15.537 7.90961 15.5711C7.95335 15.5783 7.99949 15.5905 8.04809 15.6002C8.15981 15.6269 8.28615 15.6585 8.37845 15.6366C8.45376 15.6196 8.44161 15.3597 8.43675 15.2504C8.43675 15.2067 8.43433 15.1702 8.43433 15.1387C8.43917 14.92 8.44161 14.7014 8.44161 14.4804C8.44161 14.0455 8.43433 13.5888 8.41974 13.1273C8.41488 12.967 8.52663 12.8771 8.63837 12.8747C8.74768 12.8698 8.8813 12.9572 8.88616 13.1249C8.90559 13.7054 8.91287 14.2787 8.90559 14.8326C8.90559 14.9006 8.90559 14.9686 8.90559 15.0366C8.90559 15.2407 8.90559 15.452 8.88372 15.6536C8.85701 15.8966 8.73311 16.0715 8.54605 16.1298C8.38331 16.1808 8.20355 16.1443 8.04565 16.1152C8.00679 16.1079 7.96791 16.1006 7.93148 16.0933C7.7007 16.0545 7.46751 16.0132 7.23431 15.967C6.76061 15.8723 6.2845 15.7581 5.8181 15.6294C5.7695 15.6148 5.7185 15.6051 5.66506 15.5929C5.51688 15.5589 5.34682 15.52 5.21565 15.4326C5.04562 15.3208 5.01403 15.1144 5.00433 14.9468C4.9849 14.5654 5.03103 14.1573 5.14036 13.7637C5.34441 13.018 5.75252 12.3281 6.29178 11.8204C7.44808 10.7297 8.88616 10.5596 9.89912 10.6155C10.5283 10.0179 11.3493 9.82846 12.1437 9.70943C12.1777 9.7046 12.2117 9.69729 12.2481 9.69245C12.3987 9.66572 12.5688 9.63415 12.7218 9.69001C12.9429 9.76774 13.0158 9.98879 13.0522 10.1467C13.1542 10.6009 13.1882 11.0844 13.1542 11.5775C13.6911 11.8544 14.2328 12.1872 14.8109 12.5929C14.947 12.6901 15.0854 12.7872 15.2214 12.8868C16.9705 11.8034 18.5251 11.5678 19.8393 12.1799C19.9292 12.2212 19.9972 12.3281 19.9996 12.435C20.0045 12.5273 19.9608 12.605 19.883 12.6488L18.9017 13.2075C18.8579 13.2318 18.8021 13.2585 18.7438 13.2876C18.5106 13.4018 18.2215 13.5427 18.1972 13.7856C18.185 13.9192 18.202 14.065 18.2215 14.2058C18.2288 14.2593 18.2336 14.3103 18.2385 14.3613C18.2579 14.5702 18.2798 14.7767 18.3017 14.9856C18.3429 15.401 18.3891 15.8164 18.4352 16.2294C18.4523 16.3848 18.3599 16.4626 18.2725 16.4796C18.1729 16.5014 18.0417 16.4528 17.9883 16.3217C17.9689 16.3047 17.9494 16.2852 17.9324 16.2609C17.3081 15.2917 16.4385 14.4099 15.1972 13.4892C14.6919 13.8245 14.1988 14.2058 13.7226 14.5775C13.0862 15.0706 12.4279 15.5808 11.7331 15.984C11.2692 16.2537 10.8465 16.4528 10.436 16.5889C10.1882 16.6715 9.94284 16.7298 9.70722 16.7589C9.68291 16.7613 9.64647 16.7662 9.60034 16.7662V16.7565ZM9.42786 12.8407C9.40841 12.8407 9.38899 12.8455 9.37198 12.8552C9.33554 12.8771 9.31612 12.9184 9.31612 12.9718L9.31125 16.1735C9.31125 16.2731 9.30883 16.3727 9.33796 16.4577C9.38899 16.6035 9.49587 16.652 9.69021 16.6278C9.91613 16.5986 10.1542 16.5427 10.3947 16.4626C10.7955 16.3289 11.2133 16.1346 11.67 15.8674C12.3574 15.4666 13.0109 14.9589 13.6449 14.4682C14.1356 14.0868 14.6433 13.6933 15.1631 13.3532L15.1996 13.3289L15.2336 13.3532C16.504 14.2933 17.3931 15.1921 18.032 16.1808C18.0441 16.1978 18.0563 16.2124 18.0709 16.2196L18.0879 16.2318L18.0952 16.2512C18.1195 16.3289 18.1899 16.3581 18.2458 16.346C18.2968 16.3363 18.3211 16.2925 18.3138 16.2294C18.2676 15.814 18.2215 15.3986 18.1802 14.9832C18.1583 14.7743 18.1389 14.5678 18.117 14.3589C18.1122 14.3103 18.1049 14.2593 18.1 14.2083C18.0806 14.0601 18.0611 13.9071 18.0757 13.7613C18.1073 13.4504 18.445 13.2852 18.6903 13.1662C18.7462 13.1394 18.7972 13.1127 18.8409 13.0884L19.8223 12.5297C19.8685 12.503 19.8782 12.4593 19.8757 12.4277C19.8757 12.3645 19.8344 12.3014 19.7859 12.2771C18.5008 11.6795 16.9729 11.92 15.2482 12.9985L15.2141 13.0204L15.1802 12.9961C15.0344 12.8892 14.8862 12.7848 14.738 12.6803C14.1502 12.2698 13.6012 11.9346 13.0595 11.6552L13.023 11.6358V11.5945C13.0643 11.0989 13.0328 10.6155 12.9307 10.1588C12.8846 9.94994 12.8044 9.83577 12.6781 9.78961C12.5566 9.74587 12.4085 9.7726 12.2676 9.79931C12.2311 9.80662 12.1947 9.81148 12.1607 9.81632C11.3761 9.93293 10.5696 10.12 9.96957 10.7005L9.95012 10.72L9.91613 10.7273C8.92743 10.6714 7.50881 10.8269 6.37437 11.8981C5.8521 12.3912 5.45615 13.0593 5.25695 13.7832C5.15251 14.1645 5.10635 14.5605 5.12577 14.9273C5.1355 15.1362 5.18166 15.2528 5.28124 15.3184C5.39543 15.3937 5.54603 15.4277 5.69177 15.4617C5.74765 15.4739 5.8011 15.486 5.84968 15.5006C6.31365 15.6294 6.78735 15.7435 7.25616 15.8383C7.48693 15.8844 7.72013 15.9281 7.94849 15.9646C7.98734 15.9719 8.02622 15.9792 8.06507 15.9864C8.2157 16.0156 8.37358 16.0472 8.50476 16.0059C8.64324 15.9622 8.73553 15.8261 8.7574 15.6342C8.77927 15.4375 8.77927 15.231 8.77927 15.0293C8.77927 14.9613 8.77927 14.8909 8.77927 14.8229C8.78411 14.2714 8.77927 13.6982 8.75982 13.1224C8.7574 13.0301 8.69668 12.9888 8.63837 12.9913C8.58979 12.9913 8.53391 13.0277 8.53635 13.12C8.55092 13.584 8.56064 14.0407 8.5582 14.4779C8.5582 14.699 8.55578 14.9176 8.55092 15.1362C8.55092 15.1629 8.55092 15.1994 8.55336 15.2383C8.56306 15.4374 8.57279 15.7095 8.40032 15.7484C8.28129 15.7751 8.14039 15.7411 8.01649 15.7095C7.97036 15.6974 7.92662 15.6877 7.88532 15.6804C7.68614 15.6464 7.48693 15.6099 7.28775 15.5686C6.91366 15.4933 6.53714 15.4059 6.16547 15.3063C5.98085 15.2577 5.79381 15.2042 5.6092 15.1508C5.59947 15.1484 5.58246 15.1435 5.56546 15.1411C5.47558 15.1241 5.40513 15.1047 5.3687 15.0634C5.33226 15.0196 5.32984 14.937 5.33712 14.7913C5.33712 14.7743 5.33712 14.7573 5.33712 14.7475C5.33954 14.3978 5.40027 14.0382 5.51688 13.6811C5.73065 13.0228 6.13145 12.418 6.64887 11.9807C7.99707 10.8414 9.67807 10.9216 10.5623 11.0722C11.772 11.2787 13.0352 11.835 14.4198 12.7775C14.5826 12.8868 14.7453 13.001 14.9057 13.1152L14.9761 13.1662L14.9032 13.2148C14.8595 13.2439 14.8158 13.2755 14.772 13.3046C14.364 13.5888 13.9534 13.9095 13.555 14.2229C12.4376 15.0974 11.2813 16.0035 9.93797 16.3047C9.88697 16.3168 9.83353 16.3265 9.78251 16.3363H9.76308C9.66106 16.3532 9.63433 16.3605 9.62704 16.363L9.60762 16.3168H9.59789L9.55173 16.3581L9.52744 16.3314L9.53475 16.3071C9.52989 16.2658 9.52989 16.2148 9.53475 16.1808L9.53959 12.9645C9.53959 12.9111 9.52016 12.8698 9.48373 12.8479C9.46672 12.8382 9.44729 12.8334 9.42786 12.8334V12.8407ZM18.0344 15.763L17.9008 15.5832C17.2984 14.7743 16.5356 14.031 15.4984 13.2415L15.4279 13.188L15.5057 13.1419C15.8943 12.9062 16.2611 12.7216 16.6231 12.5807C17.5777 12.2066 18.5154 12.141 19.3316 12.3961L19.4652 12.4374L18.6004 12.9281C18.564 12.95 18.5251 12.9694 18.4863 12.9913C18.2409 13.1249 17.9883 13.2609 17.8911 13.5427C17.8328 13.7079 17.845 13.8852 17.862 14.082C17.8838 14.3152 17.9081 14.5484 17.93 14.784C17.9543 15.0366 17.981 15.2893 18.0101 15.5419L18.0344 15.763ZM15.6441 13.2002C16.5818 13.9192 17.2935 14.6042 17.8668 15.3379C17.8474 15.1557 17.828 14.9759 17.8109 14.7962C17.7867 14.5629 17.7648 14.3273 17.7429 14.0941C17.7235 13.8901 17.7113 13.6909 17.7769 13.5038C17.8887 13.1783 18.1753 13.0228 18.428 12.8868C18.4668 12.8649 18.5033 12.8455 18.5397 12.8261L19.1567 12.4763C18.3988 12.2771 17.5413 12.3524 16.6644 12.6973C16.3316 12.8285 15.9964 12.9937 15.6417 13.205L15.6441 13.2002ZM12.7388 11.5046L12.6562 11.4657C11.9275 11.1305 11.2084 10.9046 10.521 10.7977L10.368 10.7734L10.4773 10.6835C10.9291 10.3799 11.4611 10.256 11.9202 10.1734C12.0757 10.1467 12.2311 10.1224 12.3866 10.1005C12.3963 10.1005 12.4085 10.0981 12.4182 10.0957C12.4716 10.086 12.5445 10.0714 12.6052 10.1273C12.6489 10.1661 12.6587 10.2487 12.6708 10.3605C12.6708 10.3823 12.6757 10.4018 12.6781 10.4163C12.734 10.7273 12.7558 11.0601 12.7413 11.4123L12.7364 11.5022L12.7388 11.5046ZM10.6813 10.703C11.3105 10.8147 11.9639 11.0212 12.6246 11.3176C12.6319 11.0091 12.6101 10.7151 12.5591 10.4406C12.5566 10.4261 12.5542 10.4018 12.5518 10.3775C12.5469 10.3362 12.5372 10.239 12.5226 10.2196C12.5105 10.2074 12.4886 10.2098 12.4425 10.2196C12.4303 10.222 12.4157 10.2244 12.4036 10.2268C12.2506 10.2487 12.0951 10.273 11.942 10.2997C11.5412 10.3702 11.0846 10.4746 10.6813 10.7054V10.703Z" fill="white"/>
<path d="M7.51607 13.5696C7.65024 13.5696 7.759 13.4609 7.759 13.3267C7.759 13.1925 7.65024 13.0838 7.51607 13.0838C7.38191 13.0838 7.27315 13.1925 7.27315 13.3267C7.27315 13.4609 7.38191 13.5696 7.51607 13.5696Z" fill="white"/>
<path d="M7.51608 13.6909C7.31446 13.6909 7.15171 13.5281 7.15171 13.3265C7.15171 13.1249 7.31446 12.9621 7.51608 12.9621C7.71771 12.9621 7.88045 13.1249 7.88045 13.3265C7.88045 13.5281 7.71771 13.6909 7.51608 13.6909ZM7.51608 13.205C7.44805 13.205 7.39461 13.2585 7.39461 13.3265C7.39461 13.3945 7.44805 13.448 7.51608 13.448C7.58409 13.448 7.63753 13.3945 7.63753 13.3265C7.63753 13.2585 7.58409 13.205 7.51608 13.205Z" fill="white"/>
<defs>
<linearGradient id="paint0_linear_1905_2225" x1="12.2234" y1="30" x2="12.2234" y2="0" gradientUnits="userSpaceOnUse">
<stop offset="0.32" stop-color="#502182"/>
<stop offset="0.93" stop-color="#2A173E"/>
</linearGradient>
</defs>
</svg>
