<svg width="35" height="28" viewBox="0 0 35 28" fill="none" xmlns="http://www.w3.org/2000/svg">
<path d="M34.9333 9.96322L32.4303 1.26931C32.3285 0.904316 32.109 0.582545 31.8055 0.353289C31.502 0.124032 31.1312 -6.73173e-05 30.75 2.73947e-08H4.25003C3.46238 2.73947e-08 2.77976 0.521635 2.56972 1.26931L0.0667505 9.96322C-0.248308 11.0587 0.591848 12.1715 1.74706 12.1715H5.59778L3.49739 27.8205H6.99804L8.17076 19.1266H26.8467L28.002 27.8205H31.5026L29.4022 12.1715H33.2529C34.4082 12.1715 35.2483 11.0587 34.9333 9.96322ZM8.62585 15.649L9.09843 12.1715H25.9016L26.3742 15.649H8.62585Z" fill="#464D87"/>
</svg>
