<svg width="86" height="86" viewBox="0 0 86 86" fill="none" xmlns="http://www.w3.org/2000/svg">
<path d="M43 84.5C65.9198 84.5 84.5 65.9198 84.5 43C84.5 20.0802 65.9198 1.5 43 1.5C20.0802 1.5 1.5 20.0802 1.5 43C1.5 65.9198 20.0802 84.5 43 84.5Z" stroke="url(#paint0_linear_1740_1862)" stroke-width="3" stroke-linecap="round" stroke-linejoin="round"/>
<g clip-path="url(#clip0_1740_1862)">
<path d="M43 79C62.8822 79 79 62.8822 79 43C79 23.1177 62.8822 7 43 7C23.1177 7 7 23.1177 7 43C7 62.8822 23.1177 79 43 79Z" fill="url(#paint1_linear_1740_1862)"/>
<path d="M45.0448 62.0455C49.35 62.0455 52.84 58.5555 52.84 54.2503C52.84 49.9451 49.35 46.4551 45.0448 46.4551C40.7397 46.4551 37.2496 49.9451 37.2496 54.2503C37.2496 58.5555 40.7397 62.0455 45.0448 62.0455Z" stroke="white" stroke-width="2" stroke-miterlimit="10"/>
<path d="M58.2544 41.291H29.7328C26.4933 41.291 23.8672 43.9171 23.8672 47.1566V61.2878C23.8672 64.5273 26.4933 67.1534 29.7328 67.1534H58.2544C61.4939 67.1534 64.12 64.5273 64.12 61.2878V47.1566C64.12 43.9171 61.4939 41.291 58.2544 41.291Z" stroke="white" stroke-width="2" stroke-miterlimit="10"/>
<path d="M53.464 36.5488H34.5232V40.9168H53.464V36.5488Z" stroke="white" stroke-width="2" stroke-miterlimit="10"/>
<path d="M35.4544 44.5645H30.3568V46.5997H35.4544V44.5645Z" fill="black" stroke="white" stroke-width="2" stroke-miterlimit="10"/>
<path d="M45.0448 57.5257C46.8528 57.5257 48.3184 56.0601 48.3184 54.2521C48.3184 52.4442 46.8528 50.9785 45.0448 50.9785C43.2369 50.9785 41.7712 52.4442 41.7712 54.2521C41.7712 56.0601 43.2369 57.5257 45.0448 57.5257Z" stroke="white" stroke-width="2" stroke-miterlimit="10"/>
<path d="M30.0112 32.4687L26.296 30.6831L22.7152 32.7375L23.2624 28.6479L20.2096 25.8735L24.2704 25.1343L25.96 21.3711L27.9184 24.9999L32.0176 25.4511L29.1664 28.4367L30.0112 32.4687Z" stroke="white" stroke-width="2" stroke-miterlimit="10"/>
<path d="M47.5312 32.219C47.5312 25.0958 52.2929 19.3262 58.1777 19.3262" stroke="white" stroke-width="2" stroke-miterlimit="10" stroke-linecap="round"/>
<path d="M50.7472 32.2195C50.7472 27.8611 54.4528 24.3379 59.0224 24.3379" stroke="white" stroke-width="2" stroke-miterlimit="10" stroke-linecap="round"/>
<path d="M40.4368 32.2197C40.4368 24.2997 36.2032 17.8965 30.9712 17.8965" stroke="white" stroke-width="2" stroke-miterlimit="10" stroke-linecap="round"/>
<path d="M32.4208 47.2811C32.5552 47.2043 32.6992 47.1371 32.8336 47.0795L32.488 47.2235C32.8432 47.0699 33.2176 46.9739 33.6016 46.9163L33.2176 46.9643C33.4384 46.9355 33.6592 46.9259 33.8704 46.9259C34.2352 46.9259 34.6288 46.7627 34.888 46.5035C35.1472 46.2443 35.3296 45.8411 35.3104 45.4859C35.2912 45.1307 35.176 44.7275 34.888 44.4683C34.6 44.2091 34.264 44.0555 33.8704 44.0459C32.8528 44.0267 31.8352 44.2955 30.952 44.7851C30.6352 44.9579 30.3856 45.3035 30.2896 45.6491C30.232 45.8411 30.2224 46.0331 30.2608 46.2251C30.2608 46.4171 30.328 46.5995 30.4336 46.7627C30.6352 47.0699 30.9232 47.3387 31.2976 47.4251C31.672 47.5115 32.056 47.4731 32.4112 47.2811H32.4208Z" fill="white"/>
</g>
<defs>
<linearGradient id="paint0_linear_1740_1862" x1="43" y1="83" x2="43" y2="3" gradientUnits="userSpaceOnUse">
<stop offset="0.32" stop-color="#502182"/>
<stop offset="0.93" stop-color="#2A173E"/>
</linearGradient>
<linearGradient id="paint1_linear_1740_1862" x1="43" y1="79" x2="43" y2="7" gradientUnits="userSpaceOnUse">
<stop offset="0.35" stop-color="#502182"/>
<stop offset="0.88" stop-color="#2A173E"/>
</linearGradient>
<clipPath id="clip0_1740_1862">
<rect width="72" height="72" fill="white" transform="translate(7 7)"/>
</clipPath>
</defs>
</svg>
