<svg width="30" height="34" viewBox="0 0 30 34" fill="none" xmlns="http://www.w3.org/2000/svg">
<path d="M11.6667 0H18.3333C18.7754 0 19.1993 0.176096 19.5118 0.48955C19.8244 0.803004 20 1.22814 20 1.67143H30V31.7571H26.6667C26.6667 32.2004 26.4911 32.6256 26.1785 32.939C25.866 33.2525 25.442 33.4286 25 33.4286C24.558 33.4286 24.134 33.2525 23.8215 32.939C23.5089 32.6256 23.3333 32.2004 23.3333 31.7571H6.66667C6.66667 32.2004 6.49107 32.6256 6.17851 32.939C5.86595 33.2525 5.44203 33.4286 5 33.4286C4.55797 33.4286 4.13405 33.2525 3.82149 32.939C3.50893 32.6256 3.33333 32.2004 3.33333 31.7571H0V1.67143H10C10 1.22814 10.1756 0.803004 10.4882 0.48955C10.8007 0.176096 11.2246 0 11.6667 0ZM3.33333 5.01429V11.7H26.6667V5.01429H3.33333ZM6.66667 6.68571C7.10869 6.68571 7.53262 6.86181 7.84518 7.17526C8.15774 7.48872 8.33333 7.91385 8.33333 8.35714C8.33333 8.80043 8.15774 9.22557 7.84518 9.53902C7.53262 9.85247 7.10869 10.0286 6.66667 10.0286C6.22464 10.0286 5.80072 9.85247 5.48816 9.53902C5.17559 9.22557 5 8.80043 5 8.35714C5 7.91385 5.17559 7.48872 5.48816 7.17526C5.80072 6.86181 6.22464 6.68571 6.66667 6.68571ZM15 6.68571H18.3333V8.35714H15V6.68571ZM20 6.68571H21.6667V10.0286H20V6.68571ZM23.3333 6.68571H25V10.0286H23.3333V6.68571ZM15 15.0429C13.2319 15.0429 11.5362 15.7472 10.286 17.0011C9.03571 18.2549 8.33333 19.9554 8.33333 21.7286C8.33333 23.5017 9.03571 25.2023 10.286 26.4561C11.5362 27.7099 13.2319 28.4143 15 28.4143C16.7681 28.4143 18.4638 27.7099 19.714 26.4561C20.9643 25.2023 21.6667 23.5017 21.6667 21.7286C21.6667 19.9554 20.9643 18.2549 19.714 17.0011C18.4638 15.7472 16.7681 15.0429 15 15.0429ZM11.6667 6.68571C12.1087 6.68571 12.5326 6.86181 12.8452 7.17526C13.1577 7.48872 13.3333 7.91385 13.3333 8.35714C13.3333 8.80043 13.1577 9.22557 12.8452 9.53902C12.5326 9.85247 12.1087 10.0286 11.6667 10.0286C11.2246 10.0286 10.8007 9.85247 10.4882 9.53902C10.1756 9.22557 10 8.80043 10 8.35714C10 7.91385 10.1756 7.48872 10.4882 7.17526C10.8007 6.86181 11.2246 6.68571 11.6667 6.68571Z" fill="#464D87"/>
</svg>
