<svg width="86" height="86" viewBox="0 0 86 86" fill="none" xmlns="http://www.w3.org/2000/svg">
<path d="M43 84.5C65.9198 84.5 84.5 65.9198 84.5 43C84.5 20.0802 65.9198 1.5 43 1.5C20.0802 1.5 1.5 20.0802 1.5 43C1.5 65.9198 20.0802 84.5 43 84.5Z" stroke="#BEC5FF" stroke-width="3" stroke-linecap="round" stroke-linejoin="round"/>
<path d="M43 77.5C62.0538 77.5 77.5 62.0538 77.5 43C77.5 23.9462 62.0538 8.5 43 8.5C23.9462 8.5 8.5 23.9462 8.5 43C8.5 62.0538 23.9462 77.5 43 77.5Z" stroke="#BEC5FF" stroke-width="3" stroke-linecap="round" stroke-linejoin="round"/>
<path d="M55.598 33.5059H30.2587V54.7991H55.598V33.5059Z" stroke="#BEC5FF" stroke-width="2" stroke-miterlimit="10"/>
<path d="M38.6197 33.2363C38.6197 38.8957 35.0026 43.4796 30.5339 43.4796" stroke="#BEC5FF" stroke-width="2" stroke-miterlimit="10"/>
<path d="M36.4622 54.7993C36.4622 48.5445 33.8118 43.4805 30.5339 43.4805" stroke="#BEC5FF" stroke-width="2" stroke-miterlimit="10"/>
<path d="M47.2433 33.2363C47.2433 38.8957 50.8604 43.4796 55.3291 43.4796" stroke="#BEC5FF" stroke-width="2" stroke-miterlimit="10"/>
<path d="M49.4008 54.7993C49.4008 48.5445 52.0513 43.4805 55.3291 43.4805" stroke="#BEC5FF" stroke-width="2" stroke-miterlimit="10"/>
<path d="M33.2292 50.4829C33.2292 46.6097 32.0256 43.4727 30.5339 43.4727" stroke="#BEC5FF" stroke-width="2" stroke-miterlimit="10"/>
<path d="M53.1524 50.5083C53.1524 46.6351 54.356 43.498 55.8477 43.498" stroke="#BEC5FF" stroke-width="2" stroke-miterlimit="10"/>
<path d="M27.5506 40.8877L25.5467 40.5484L24.1255 42.0081L23.8246 39.9978L22 39.0951L23.8246 38.1924L24.1127 36.1758L25.5403 37.629L27.5442 37.2833L26.6031 39.0887L27.5506 40.8877Z" stroke="#BEC5FF" stroke-miterlimit="10"/>
<path d="M50.5275 27.338L49.2151 25.5327L47 25.5967L48.2932 23.7849L47.5378 21.6786L49.6505 22.3636L51.4046 21L51.4174 23.2343L53.2484 24.4955L51.1485 25.1933L50.5275 27.338Z" stroke="#BEC5FF" stroke-miterlimit="10"/>
<path d="M55.4124 30.4707H30.4443C29.5604 30.4707 28.8438 31.1873 28.8438 32.0712C28.8438 32.9552 29.5604 33.6717 30.4443 33.6717H55.4124C56.2963 33.6717 57.0129 32.9552 57.0129 32.0712C57.0129 31.1873 56.2963 30.4707 55.4124 30.4707Z" stroke="#BEC5FF" stroke-width="2" stroke-miterlimit="10"/>
<path d="M55.4124 54.7988H30.4443C29.5604 54.7988 28.8438 55.5154 28.8438 56.3993C28.8438 57.2833 29.5604 57.9999 30.4443 57.9999H55.4124C56.2963 57.9999 57.0129 57.2833 57.0129 56.3993C57.0129 55.5154 56.2963 54.7988 55.4124 54.7988Z" stroke="#BEC5FF" stroke-width="2" stroke-miterlimit="10"/>
</svg>
