<svg width="33" height="29" viewBox="0 0 33 29" fill="none" xmlns="http://www.w3.org/2000/svg">
<path d="M13.7981 21.9276L9.66399 24.6295L9.45234 24.7678L9.51212 24.5221L10.1085 22.071L10.1086 22.0708L10.3667 21.0025L9.38709 20.5044L13.7981 21.9276ZM13.7981 21.9276L14.3057 21.9914C14.3058 21.9914 14.306 21.9914 14.3061 21.9914M13.7981 21.9276L14.3061 21.9914M14.3061 21.9914C15.0137 22.0827 15.7304 22.129 16.4515 22.129C19.9975 22.129 23.18 21.0334 25.4782 19.2834C27.7762 17.5335 29.1948 15.1246 29.1948 12.502C29.1948 9.87931 27.7762 7.47043 25.4782 5.72054C23.18 3.97052 19.9975 2.87489 16.4515 2.87489C12.9055 2.87489 9.723 3.97052 7.42482 5.72054C5.12681 7.47043 3.70826 9.87931 3.70826 12.502C3.70826 15.7208 5.84847 18.7118 9.38695 20.5043L14.3061 21.9914ZM7.14509 22.5182L7.16239 22.4468L7.09949 22.4089C3.27657 20.1072 0.933374 16.4865 0.933374 12.502C0.933374 5.58054 7.92823 0.1 16.4515 0.1C24.9748 0.1 31.9697 5.58054 31.9697 12.502C31.9697 19.4234 24.9748 24.9039 16.4515 24.9039C15.7974 24.9039 15.1462 24.8714 14.5009 24.8077L14.4659 24.8043L14.4364 24.8235L8.84 28.4771C8.38427 28.7185 8.04548 28.8663 7.7289 28.8949C7.41868 28.923 7.11795 28.837 6.73845 28.579C6.2934 28.2746 6.09193 27.9641 6.03137 27.6201C5.96953 27.2688 6.0512 26.8666 6.21047 26.3718L6.21073 26.3718L6.21247 26.3647L7.14509 22.5182Z" fill="#7C87F2" stroke="white" stroke-width="0.2"/>
<path d="M24.6762 12.6143L26.7624 15.4065C26.8116 15.4723 26.8464 15.5465 26.8651 15.6249C26.8837 15.7034 26.8857 15.7845 26.871 15.8636C26.8563 15.9428 26.8251 16.0185 26.7793 16.0863C26.7335 16.1542 26.6739 16.2129 26.604 16.2591C26.534 16.3053 26.4551 16.338 26.3717 16.3556C26.2883 16.3731 26.202 16.375 26.1178 16.3611C26.0336 16.3473 25.9531 16.318 25.881 16.2749C25.8088 16.2318 25.7464 16.1758 25.6973 16.1101L23.7295 13.4759L23.1411 14.011V15.7771C23.1411 15.9393 23.0726 16.0948 22.9506 16.2095C22.8287 16.3242 22.6632 16.3886 22.4907 16.3886C22.3182 16.3886 22.1528 16.3242 22.0308 16.2095C21.9088 16.0948 21.8403 15.9393 21.8403 15.7771V13.9126C21.8159 13.8181 21.8159 13.7194 21.8403 13.6249V10.3118C21.8403 10.1496 21.9088 9.99409 22.0308 9.8794C22.1528 9.76471 22.3182 9.70028 22.4907 9.70028C22.6632 9.70028 22.8287 9.76471 22.9506 9.8794C23.0726 9.99409 23.1411 10.1496 23.1411 10.3118V12.3098L25.7978 9.89204C25.923 9.78596 26.0871 9.72971 26.2555 9.73512C26.4239 9.74054 26.5835 9.8072 26.7007 9.92108C26.8179 10.0349 26.8835 10.1871 26.8837 10.3456C26.8839 10.504 26.8187 10.6564 26.7018 10.7705L24.6762 12.6143ZM20.6002 15.1085C20.7727 15.1085 20.9381 15.1729 21.0601 15.2876C21.182 15.4023 21.2506 15.5579 21.2506 15.7201C21.2506 15.8822 21.182 16.0378 21.0601 16.1525C20.9381 16.2672 20.7727 16.3316 20.6002 16.3316H17.9379C17.7657 16.3313 17.6006 16.2667 17.4789 16.152C17.3572 16.0374 17.2889 15.882 17.2889 15.7201V10.3313C17.2848 10.2487 17.2987 10.1662 17.3295 10.0887C17.3603 10.0113 17.4075 9.94056 17.4682 9.88076C17.529 9.82097 17.602 9.77337 17.6828 9.74086C17.7637 9.70834 17.8507 9.69157 17.9386 9.69157C18.0265 9.69157 18.1136 9.70834 18.1944 9.74086C18.2752 9.77337 18.3482 9.82097 18.409 9.88076C18.4697 9.94056 18.5169 10.0113 18.5477 10.0887C18.5786 10.1662 18.5924 10.2487 18.5883 10.3313V15.1085H20.6002ZM12.5294 13.6936H14.3676L13.4885 11.4819L12.5294 13.6936ZM16.006 14.3259L16.4814 15.5244C16.5142 15.6002 16.5306 15.6814 16.5294 15.7632C16.5283 15.8451 16.5097 15.9258 16.4747 16.0008C16.4397 16.0757 16.3892 16.1433 16.3259 16.1995C16.2627 16.2558 16.1881 16.2995 16.1065 16.3281C16.025 16.3567 15.9382 16.3696 15.8512 16.3661C15.7643 16.3626 15.679 16.3428 15.6003 16.3077C15.5217 16.2726 15.4514 16.2231 15.3935 16.162C15.3356 16.1009 15.2913 16.0295 15.2633 15.952L14.8526 14.9167H12.0003L11.5441 15.9701C11.5118 16.0445 11.4643 16.1121 11.4042 16.1692C11.3441 16.2263 11.2726 16.2717 11.1939 16.3028C11.1151 16.3339 11.0306 16.3501 10.9452 16.3505C10.8598 16.3509 10.7751 16.3354 10.696 16.3051C10.6169 16.2747 10.545 16.23 10.4843 16.1734C10.4236 16.1169 10.3753 16.0497 10.3423 15.9757C10.3092 15.9016 10.2919 15.8222 10.2915 15.7418C10.2911 15.6615 10.3075 15.5819 10.3398 15.5076L12.6272 10.2276C12.697 10.0564 12.8206 9.9092 12.9816 9.80572C13.1427 9.70224 13.3334 9.64738 13.5284 9.64845C13.7218 9.65597 13.9081 9.7188 14.0625 9.82855C14.2169 9.93829 14.332 10.0897 14.3924 10.2626L15.8338 13.8905C15.9459 14.0029 16.0084 14.1511 16.0088 14.3052L16.006 14.3259ZM11.4284 10.3378C11.4284 10.6746 11.139 10.9493 10.7794 10.9493H9.20849V15.79C9.20849 15.9524 9.1399 16.1081 9.01779 16.2229C8.89569 16.3377 8.73008 16.4022 8.5574 16.4022C8.38472 16.4022 8.21912 16.3377 8.09701 16.2229C7.97491 16.1081 7.90631 15.9524 7.90631 15.79V10.9493H6.30787C6.22246 10.9493 6.13788 10.9335 6.05897 10.9028C5.98006 10.872 5.90836 10.827 5.84797 10.7702C5.78757 10.7134 5.73966 10.646 5.70698 10.5718C5.67429 10.4976 5.65747 10.4181 5.65747 10.3378C5.65747 10.2574 5.67429 10.1779 5.70698 10.1037C5.73966 10.0295 5.78757 9.96211 5.84797 9.90532C5.90836 9.84853 5.98006 9.80348 6.05897 9.77275C6.13788 9.74201 6.22246 9.72619 6.30787 9.72619H10.7794C11.1376 9.72619 11.4284 9.99958 11.4284 10.3378Z" fill="#7C87F2"/>
</svg>
