<svg width="15" height="12" viewBox="0 0 15 12" fill="none" xmlns="http://www.w3.org/2000/svg">
<path d="M5 3.40278C5 3.80787 4.85417 4.1522 4.5625 4.43576C4.27083 4.71933 3.91667 4.86111 3.5 4.86111C3.08333 4.86111 2.72917 4.71933 2.4375 4.43576C2.14583 4.1522 2 3.80787 2 3.40278C2 2.99769 2.14583 2.65336 2.4375 2.36979C2.72917 2.08623 3.08333 1.94444 3.5 1.94444C3.91667 1.94444 4.27083 2.08623 4.5625 2.36979C4.85417 2.65336 5 2.99769 5 3.40278ZM13 6.31944V9.72222H2V8.26389L4.5 5.83333L5.75 7.04861L9.75 3.15972L13 6.31944ZM13.75 0.972222H1.25C1.18229 0.972222 1.1237 0.996275 1.07422 1.04438C1.02474 1.09248 1 1.14945 1 1.21528V10.4514C1 10.5172 1.02474 10.5742 1.07422 10.6223C1.1237 10.6704 1.18229 10.6944 1.25 10.6944H13.75C13.8177 10.6944 13.8763 10.6704 13.9258 10.6223C13.9753 10.5742 14 10.5172 14 10.4514V1.21528C14 1.14945 13.9753 1.09248 13.9258 1.04438C13.8763 0.996275 13.8177 0.972222 13.75 0.972222ZM15 1.21528V10.4514C15 10.7856 14.8776 11.0717 14.6328 11.3097C14.388 11.5477 14.0938 11.6667 13.75 11.6667H1.25C0.90625 11.6667 0.611979 11.5477 0.367188 11.3097C0.122396 11.0717 0 10.7856 0 10.4514V1.21528C0 0.881076 0.122396 0.59498 0.367188 0.356988C0.611979 0.118996 0.90625 0 1.25 0H13.75C14.0938 0 14.388 0.118996 14.6328 0.356988C14.8776 0.59498 15 0.881076 15 1.21528Z" fill="#979797"/>
</svg>
