<svg width="34" height="26" viewBox="0 0 34 26" fill="none" xmlns="http://www.w3.org/2000/svg">
<path d="M33.8333 13.0962C33.8333 13.0132 33.8333 12.9188 33.8296 12.8092C33.8258 12.5034 33.8182 12.1598 33.8107 11.7935C33.7805 10.74 33.7276 9.69023 33.6445 8.70091C33.5312 7.33776 33.3651 6.20117 33.1385 5.34779C32.8995 4.45721 32.4308 3.64498 31.7794 2.99228C31.1281 2.33958 30.3168 1.86928 29.4267 1.62839C28.3581 1.34141 26.2661 1.16393 23.3208 1.05443C21.9199 1.00156 20.4208 0.967578 18.9217 0.948698C18.3969 0.941146 17.9098 0.93737 17.4717 0.933594H16.3616C15.9236 0.93737 15.4365 0.941146 14.9116 0.948698C13.4125 0.967578 11.9134 1.00156 10.5125 1.05443C7.56719 1.16771 5.47148 1.34518 4.40664 1.62839C3.51625 1.86869 2.70466 2.33879 2.0532 2.99158C1.40174 3.64437 0.933287 4.45691 0.694792 5.34779C0.464453 6.20117 0.302083 7.33776 0.188802 8.70091C0.105729 9.69023 0.0528645 10.74 0.0226562 11.7935C0.0113281 12.1598 0.00755203 12.5034 0.00377598 12.8092C0.00377598 12.9188 0 13.0132 0 13.0962V13.3077C0 13.3908 -5.78429e-08 13.4852 0.00377598 13.5947C0.00755203 13.9005 0.0151041 14.2441 0.0226562 14.6104C0.0528645 15.6639 0.105729 16.7137 0.188802 17.703C0.302083 19.0661 0.468229 20.2027 0.694792 21.0561C1.17813 22.8648 2.59792 24.2922 4.40664 24.7755C5.47148 25.0625 7.56719 25.24 10.5125 25.3495C11.9134 25.4023 13.4125 25.4363 14.9116 25.4552C15.4365 25.4628 15.9236 25.4665 16.3616 25.4703H17.4717C17.9098 25.4665 18.3969 25.4628 18.9217 25.4552C20.4208 25.4363 21.9199 25.4023 23.3208 25.3495C26.2661 25.2362 28.3619 25.0587 29.4267 24.7755C31.2354 24.2922 32.6552 22.8686 33.1385 21.0561C33.3689 20.2027 33.5312 19.0661 33.6445 17.703C33.7276 16.7137 33.7805 15.6639 33.8107 14.6104C33.822 14.2441 33.8258 13.9005 33.8296 13.5947C33.8296 13.4852 33.8333 13.3908 33.8333 13.3077V13.0962ZM31.1146 13.2926C31.1146 13.3719 31.1146 13.4587 31.1108 13.5607C31.107 13.8552 31.0995 14.1799 31.0919 14.5311C31.0655 15.5355 31.0126 16.54 30.9333 17.4727C30.8314 18.6885 30.6879 19.6854 30.5104 20.3538C30.2763 21.226 29.5891 21.9171 28.7206 22.1474C27.9276 22.3589 25.9301 22.5288 23.2151 22.6307C21.8406 22.6836 20.3604 22.7176 18.884 22.7365C18.3667 22.744 17.8871 22.7478 17.4566 22.7478H16.3767L14.9493 22.7365C13.4729 22.7176 11.9965 22.6836 10.6182 22.6307C7.90326 22.525 5.90195 22.3589 5.11276 22.1474C4.24427 21.9133 3.55703 21.226 3.32292 20.3538C3.14544 19.6854 3.00195 18.6885 2.9 17.4727C2.8207 16.54 2.77161 15.5355 2.74141 14.5311C2.73008 14.1799 2.7263 13.8514 2.72253 13.5607C2.72253 13.4587 2.71875 13.3681 2.71875 13.2926V13.1113C2.71875 13.032 2.71875 12.9452 2.72253 12.8432C2.7263 12.5487 2.73385 12.224 2.74141 11.8728C2.76784 10.8684 2.8207 9.86393 2.9 8.93125C3.00195 7.71536 3.14544 6.71849 3.32292 6.05013C3.55703 5.17786 4.24427 4.48685 5.11276 4.25651C5.90573 4.04505 7.90326 3.87513 10.6182 3.77318C11.9927 3.72031 13.4729 3.68633 14.9493 3.66745C15.4667 3.6599 15.9462 3.65612 16.3767 3.65612H17.4566L18.884 3.66745C20.3604 3.68633 21.8369 3.72031 23.2151 3.77318C25.9301 3.87891 27.9314 4.04505 28.7206 4.25651C29.5891 4.49063 30.2763 5.17786 30.5104 6.05013C30.6879 6.71849 30.8314 7.71536 30.9333 8.93125C31.0126 9.86393 31.0617 10.8684 31.0919 11.8728C31.1033 12.224 31.107 12.5525 31.1108 12.8432C31.1108 12.9452 31.1146 13.0358 31.1146 13.1113V13.2926ZM13.556 16.523C13.556 17.2943 14.3923 17.7752 15.0589 17.3873L20.82 14.035C21.4852 13.6479 21.4821 12.6859 20.8144 12.3031L15.0533 9.00045C14.3867 8.61827 13.556 9.09956 13.556 9.868V16.523Z" fill="#7C87F2"/>
</svg>
