<?xml version="1.0" encoding="UTF-8"?><svg id="_레이어_1" xmlns="http://www.w3.org/2000/svg" xmlns:xlink="http://www.w3.org/1999/xlink" viewBox="0 0 71 71"><defs><style>.cls-1{fill:url(#_무제_그라디언트_4);}.cls-2{fill:#fff;}</style><linearGradient id="_무제_그라디언트_4" x1="35.5" y1="71" x2="35.5" y2="0" gradientUnits="userSpaceOnUse"><stop offset=".35" stop-color="#502182"/><stop offset=".91" stop-color="#2a173e"/></linearGradient></defs><circle class="cls-1" cx="35.5" cy="35.5" r="35.5"/><g><path class="cls-2" d="M36.28,44.14c-5.65,0-10.75-3.59-12.69-8.84-.1,0-.21,.01-.31,.01-2.06,0-3.14-2.18-4.1-4.11l-.05-.1c-.22-.43-2.08-4.29-1.37-6.18,.23-.61,.64-.89,.95-1.02,1.29-.54,2.87,.58,4.85,2.08,1.92-5.32,6.96-8.92,12.72-8.92s10.97,3.78,12.81,9.17h.02c2.13-1.62,3.81-2.89,5.17-2.33h0c.31,.13,.72,.41,.95,1.02,.71,1.9-1.16,5.75-1.37,6.18l-.05,.09c-.96,1.93-2.04,4.11-4.1,4.11-.24,0-.48-.02-.72-.07-1.93,5.29-7.02,8.9-12.71,8.9Zm-11.37-11.31l.3,1.02c1.43,4.88,5.98,8.29,11.07,8.29s9.72-3.47,11.11-8.44l.33-1.19,1.09,.57c.3,.15,.6,.23,.9,.23,.82,0,1.61-1.59,2.31-3l.05-.1c.97-1.96,1.4-3.77,1.33-4.43-.66,.19-2.15,1.32-3.08,2.02l-.17,.13c-.37,.28-.7,.53-1.01,.77l-1.25,.97-.34-1.55c-1.15-5.26-5.88-9.07-11.27-9.07s-9.95,3.63-11.2,8.82l-.36,1.49-2.04-1.55c-.93-.7-2.42-1.83-3.08-2.02-.07,.65,.36,2.47,1.33,4.43l.05,.1c.7,1.4,1.49,3,2.31,3,.19,0,.4-.04,.64-.13l1-.35Z"/><g><rect class="cls-2" x="21.86" y="19.45" width="29.26" height="5.42" rx="1.5" ry="1.5"/><path class="cls-2" d="M49.62,25.37H23.36c-1.1,0-2-.9-2-2v-2.42c0-1.1,.9-2,2-2h26.26c1.1,0,2,.9,2,2v2.42c0,1.1-.9,2-2,2Zm-26.26-5.42c-.55,0-1,.45-1,1v2.42c0,.55,.45,1,1,1h26.26c.55,0,1-.45,1-1v-2.42c0-.55-.45-1-1-1H23.36Z"/></g><g><path class="cls-2" d="M24.86,21.62l10.02-15.88,.39-.62c.79-.59,1.67-.59,2.42,0l.39,.62,10.02,15.88H24.86Z"/><path class="cls-2" d="M49.03,22.12H23.96L34.98,4.72c.97-.73,2.1-.73,3.03,0l.11,.13,10.9,17.27Zm-23.26-1h21.44l-9.89-15.66c-.53-.39-1.11-.39-1.67,0l-9.88,15.66Z"/></g><g><path class="cls-2" d="M48.07,27.63c-.41,1.86-3.6,.75-4.69,.3-1.46-.6-2.74-1.6-3.78-2.83,.18-.12,.36-.25,.54-.38,.57-.42,.03-1.4-.55-.98-2.37,1.75-5.01,3.05-7.82,3.81-1.33,.36-2.7,.64-4.07,.71-1.18,.06-2.63-.05-3.4-1.13-.41-.58-1.35-.02-.94,.57,1.75,2.47,5.33,1.73,7.79,1.16,2.65-.61,5.2-1.69,7.52-3.16,1.31,1.63,3.05,2.86,4.99,3.52,1.68,.57,4.9,1.18,5.45-1.3,.16-.71-.89-1.01-1.04-.3Z"/><path class="cls-2" d="M46.42,30.25c-1.16,0-2.32-.33-2.91-.54-1.9-.65-3.59-1.8-4.93-3.34-2.3,1.4-4.76,2.41-7.3,3-2.36,.54-6.32,1.45-8.31-1.36-.22-.3-.26-.66-.11-.98,.16-.34,.51-.58,.9-.62,.37-.03,.74,.13,.96,.45,.5,.7,1.44,1,2.96,.92,1.17-.06,2.47-.29,3.97-.69,2.72-.74,5.3-2,7.66-3.73,.29-.21,.63-.26,.94-.12,.34,.15,.59,.5,.63,.9,.04,.4-.12,.77-.44,1-.03,.02-.06,.04-.09,.06,.94,1.01,2.05,1.79,3.22,2.27,1.21,.5,2.89,.94,3.65,.55,.2-.1,.31-.26,.36-.5h0c.08-.37,.32-.64,.66-.75,.35-.11,.76-.02,1.05,.24,.28,.26,.4,.64,.31,1.02-.18,.8-.6,1.4-1.27,1.77-.57,.32-1.24,.43-1.92,.43Zm-7.62-5.19l.28,.35c1.26,1.56,2.9,2.72,4.76,3.36,.63,.22,2.8,.87,4.02,.18,.41-.23,.67-.6,.78-1.12l-.07-.08c-.12,.52-.42,.92-.88,1.16-1.29,.67-3.57-.13-4.49-.51-1.47-.61-2.85-1.63-3.97-2.97l-.35-.42,.62-.43c.12-.08,.24-.16,.36-.25,.04-.13,0-.18-.01-.19-2.4,1.82-5.09,3.13-7.93,3.91-1.57,.43-2.93,.66-4.18,.73-.69,.03-2.78,.14-3.83-1.34h-.14c1.5,2.08,4.55,1.59,7.29,.96,2.57-.59,5.05-1.63,7.36-3.1l.38-.24Z"/></g><g><ellipse class="cls-2" cx="31.08" cy="32.46" rx="1.08" ry="1.63"/><path class="cls-2" d="M31.08,34.58c-.89,0-1.58-.93-1.58-2.13s.7-2.13,1.58-2.13,1.58,.93,1.58,2.13-.7,2.13-1.58,2.13Zm0-3.25c-.27,0-.58,.49-.58,1.13s.31,1.13,.58,1.13,.58-.49,.58-1.13-.31-1.13-.58-1.13Z"/></g><g><ellipse class="cls-2" cx="41.91" cy="32.46" rx="1.08" ry="1.63"/><path class="cls-2" d="M41.91,34.58c-.89,0-1.58-.93-1.58-2.13s.7-2.13,1.58-2.13,1.58,.93,1.58,2.13-.7,2.13-1.58,2.13Zm0-3.25c-.27,0-.58,.49-.58,1.13s.31,1.13,.58,1.13,.58-.49,.58-1.13-.31-1.13-.58-1.13Z"/></g><path class="cls-2" d="M52.64,61.09H20.35l.24-1.2c2.17-10.86,6.61-17.6,11.59-17.6h8.64c4.98,0,9.42,6.74,11.59,17.6l.24,1.2Zm-29.84-2h27.39c-2-9.03-5.63-14.8-9.37-14.8h-8.64c-3.74,0-7.37,5.76-9.37,14.8Z"/><g><path class="cls-2" d="M27.7,45.09c-2.78-4.01-7.06-6.5-11.48-6.66-1.88-.07-4.21,.29-5.12,2.51-.94,2.3-.24,5.41,.95,7.4,1.03,1.73,2.56,2.93,4.27,3.46-1.47,1.41-2.17,4.16-1.31,6.1,.59,1.32,1.86,2.08,3.1,2.18,1.57,.13,3.03-.83,4.2-1.96,.52-.5-.22-1.37-.74-.87-1.48,1.42-4.26,2.64-5.56,.21-1.03-1.93,.45-5.41,2.46-5.33,.68-.01,.68-1.21,0-1.23-1.99,.04-3.92-.93-5.2-2.72-1.19-1.65-1.99-4.44-1.27-6.54,.7-2.05,3.07-2.07,4.64-1.96,1.88,.13,3.75,.73,5.43,1.71,1.9,1.1,3.56,2.65,4.89,4.57,.43,.62,1.17-.26,.74-.87Z"/><path class="cls-2" d="M18.38,60.59c-.11,0-.21,0-.32-.01-1.52-.12-2.9-1.09-3.51-2.47-.81-1.83-.4-4.4,.9-6.09-1.57-.67-2.91-1.86-3.84-3.42-1.19-2.01-2.01-5.32-.98-7.85,.56-1.36,1.99-2.95,5.6-2.82,4.57,.17,9.01,2.75,11.87,6.88h0c.42,.6,.19,1.36-.29,1.7-.44,.3-.96,.2-1.27-.26-1.3-1.87-2.89-3.36-4.73-4.43-1.64-.95-3.44-1.51-5.22-1.64-2.42-.18-3.69,.33-4.13,1.62-.66,1.94,.13,4.59,1.21,6.09,1.17,1.63,2.92,2.55,4.79,2.51,.6,.02,1.02,.51,1.02,1.13,0,.62-.43,1.09-1,1.1-.6-.04-1.19,.38-1.65,1.11-.7,1.12-.86,2.58-.37,3.49,.34,.64,.8,1,1.4,1.1,1.11,.18,2.5-.59,3.37-1.43,.42-.4,1.04-.38,1.45,.05,.44,.46,.43,1.12,0,1.54-1.46,1.4-2.9,2.11-4.27,2.11Zm-2.58-21.67c-2.22,0-3.64,.74-4.24,2.21-.9,2.21-.16,5.15,.91,6.96,.94,1.58,2.35,2.73,3.99,3.24l.81,.25-.61,.58c-1.39,1.33-1.94,3.87-1.2,5.54,.47,1.05,1.52,1.79,2.68,1.88,1.18,.08,2.46-.52,3.82-1.82,0-.11-.04-.15-.06-.16-.97,.95-2.66,1.96-4.21,1.71-.9-.14-1.64-.7-2.12-1.61-.65-1.22-.48-3.06,.41-4.49,.65-1.04,1.56-1.61,2.51-1.58,0-.03,0-.2-.04-.24-2.2,.04-4.22-1.02-5.58-2.92-1.25-1.75-2.12-4.71-1.34-7,.88-2.6,4.1-2.37,5.15-2.29,1.93,.14,3.88,.75,5.65,1.77,1.94,1.12,3.62,2.68,5,4.64,0-.01,.01-.03,.01-.04,.02-.1-.02-.15-.03-.17-2.69-3.88-6.84-6.29-11.09-6.45-.13,0-.27,0-.4,0Z"/></g><g><path class="cls-2" d="M45.29,45.09c2.81-4.01,7.13-6.5,11.6-6.66,1.89-.07,4.25,.29,5.17,2.51,.95,2.3,.24,5.41-.96,7.4-1.04,1.73-2.59,2.93-4.31,3.46,1.48,1.41,2.19,4.16,1.32,6.1-.59,1.32-1.88,2.08-3.13,2.18-1.59,.13-3.06-.83-4.25-1.96-.53-.5,.23-1.37,.75-.87,1.49,1.42,4.31,2.64,5.62,.21,1.04-1.93-.45-5.41-2.48-5.33-.69-.01-.68-1.21,0-1.23,2.01,.04,3.96-.93,5.26-2.72,1.2-1.65,2.01-4.44,1.29-6.54-.7-2.05-3.11-2.07-4.69-1.96-1.9,.13-3.78,.73-5.49,1.71-1.92,1.1-3.6,2.65-4.94,4.57-.43,.62-1.18-.26-.75-.87Z"/><path class="cls-2" d="M54.7,60.59c-1.39,0-2.84-.71-4.31-2.11-.44-.42-.45-1.08-.02-1.54,.41-.43,1.04-.46,1.46-.06,.89,.84,2.29,1.62,3.42,1.43,.61-.1,1.07-.46,1.42-1.1,.48-.89,.33-2.35-.36-3.46-.46-.75-1.07-1.17-1.66-1.14-.6-.01-1.03-.47-1.03-1.1s.42-1.11,1-1.13c1.92,.06,3.69-.88,4.87-2.51,1.09-1.5,1.89-4.14,1.22-6.09-.44-1.29-1.73-1.79-4.18-1.62-1.8,.13-3.62,.7-5.28,1.64-1.86,1.06-3.47,2.55-4.78,4.43-.32,.46-.84,.56-1.28,.25-.48-.33-.71-1.1-.29-1.69h0c2.9-4.13,7.38-6.7,11.99-6.88,3.64-.13,5.09,1.46,5.65,2.82,1.04,2.53,.22,5.84-.99,7.85-.93,1.56-2.29,2.75-3.88,3.42,1.31,1.69,1.73,4.26,.91,6.09-.62,1.38-2.01,2.35-3.55,2.47-.11,0-.21,.01-.32,.01Zm-3.56-2.98s-.07,.04-.08,.09c1.39,1.36,2.69,1.97,3.88,1.88,1.17-.09,2.24-.83,2.71-1.88,.75-1.67,.2-4.2-1.21-5.53l-.62-.59,.81-.25c1.65-.51,3.08-1.67,4.03-3.24,1.08-1.8,1.83-4.75,.92-6.96-.64-1.55-2.21-2.3-4.69-2.2-4.3,.16-8.49,2.57-11.21,6.45-.01,.02-.05,.07-.03,.17,0,.02,0,.04,.02,.05,1.4-1.97,3.1-3.52,5.05-4.64,1.78-1.02,3.76-1.63,5.7-1.77,1.07-.08,4.31-.31,5.2,2.29,.79,2.28-.09,5.25-1.35,7-1.35,1.86-3.37,2.92-5.55,2.92-.04,0-.08,0-.12,0,.02,0,0,.05,0,.11,0,.07,.02,.12,.03,.12,.93-.06,1.85,.54,2.51,1.6,.88,1.42,1.05,3.25,.4,4.46-.49,.91-1.23,1.47-2.14,1.61-1.56,.25-3.28-.76-4.26-1.7,0,0,0,0,0,0Z"/></g><path class="cls-2" d="M23.76,26.64c1.93,0,1.93-3,0-3s-1.93,3,0,3h0Z"/><path class="cls-2" d="M48.98,26.48c1.93,0,1.93-3,0-3s-1.93,3,0,3h0Z"/></g></svg>