<svg width="86" height="86" viewBox="0 0 86 86" fill="none" xmlns="http://www.w3.org/2000/svg">
<path d="M43 84.5C65.9198 84.5 84.5 65.9198 84.5 43C84.5 20.0802 65.9198 1.5 43 1.5C20.0802 1.5 1.5 20.0802 1.5 43C1.5 65.9198 20.0802 84.5 43 84.5Z" stroke="url(#paint0_linear_1740_1865)" stroke-width="3" stroke-linecap="round" stroke-linejoin="round"/>
<g clip-path="url(#clip0_1740_1865)">
<path d="M43 79C62.8822 79 79 62.8822 79 43C79 23.1177 62.8822 7 43 7C23.1177 7 7 23.1177 7 43C7 62.8822 23.1177 79 43 79Z" fill="url(#paint1_linear_1740_1865)"/>
<path d="M59.6176 33.8332C58.8304 33.5068 57.2848 34.6684 55.6048 35.9356C55.1824 36.2524 54.808 36.5404 54.4624 36.7996C53.2816 31.3852 48.472 27.334 42.7024 27.334C36.9328 27.334 32.2864 31.2604 31.0096 36.5404C30.76 36.3484 30.5008 36.1564 30.2128 35.9356C28.5328 34.6684 26.9872 33.5068 26.2 33.8332C25.0576 34.3132 26.1808 37.606 27.0928 39.4396C27.9568 41.1772 28.8016 42.9436 30.2128 42.9436C30.5392 42.9436 30.856 42.8668 31.1536 42.7612C32.6224 47.7628 37.2304 51.4108 42.7024 51.4108C48.1744 51.4108 52.8784 47.686 54.2896 42.6076C54.6928 42.8188 55.1248 42.9436 55.5952 42.9436C57.0064 42.9436 57.8512 41.1772 58.7152 39.4396C59.6272 37.606 60.7504 34.3132 59.608 33.8332H59.6176Z" stroke="white" stroke-width="2" stroke-miterlimit="10"/>
<path d="M55.5184 28.668H30.3088C29.5135 28.668 28.8688 29.3127 28.8688 30.108V32.4312C28.8688 33.2265 29.5135 33.8712 30.3088 33.8712H55.5184C56.3137 33.8712 56.9584 33.2265 56.9584 32.4312V30.108C56.9584 29.3127 56.3137 28.668 55.5184 28.668Z" fill="white" stroke="white" stroke-miterlimit="10"/>
<path d="M31.7488 30.7511L41.368 15.5063L41.7424 14.9111C42.5008 14.3447 43.3456 14.3447 44.0656 14.9111L44.44 15.5063C47.5024 20.3543 54.0592 30.7511 54.0592 30.7511H31.7488Z" fill="white" stroke="white" stroke-miterlimit="10" stroke-linecap="round"/>
<path d="M54.0304 36.5203C53.6368 38.3059 50.5744 37.2403 49.528 36.8083C48.1264 36.2323 46.8976 35.2723 45.8992 34.0915C46.072 33.9763 46.2448 33.8515 46.4176 33.7267C46.9648 33.3235 46.4464 32.3827 45.8896 32.7859C43.6144 34.4659 41.08 35.7139 38.3824 36.4435C37.1056 36.7891 35.7904 37.0579 34.4752 37.1251C33.3424 37.1827 31.9504 37.0771 31.2112 36.0403C30.8176 35.4835 29.9152 36.0211 30.3088 36.5875C31.9888 38.9587 35.4256 38.2483 37.7872 37.7011C40.3312 37.1155 42.7792 36.0787 45.0064 34.6675C46.264 36.2323 47.9344 37.4131 49.7968 38.0467C51.4096 38.5939 54.5008 39.1795 55.0288 36.7987C55.1824 36.1171 54.1744 35.8291 54.0304 36.5107V36.5203Z" fill="white" stroke="white" stroke-miterlimit="10"/>
<path d="M37.7104 42.7214C38.283 42.7214 38.7472 42.0208 38.7472 41.1566C38.7472 40.2924 38.283 39.5918 37.7104 39.5918C37.1378 39.5918 36.6736 40.2924 36.6736 41.1566C36.6736 42.0208 37.1378 42.7214 37.7104 42.7214Z" fill="white" stroke="white" stroke-miterlimit="10"/>
<path d="M48.1169 42.7214C48.6895 42.7214 49.1537 42.0208 49.1537 41.1566C49.1537 40.2924 48.6895 39.5918 48.1169 39.5918C47.5443 39.5918 47.0801 40.2924 47.0801 41.1566C47.0801 42.0208 47.5443 42.7214 48.1169 42.7214Z" fill="white" stroke="white" stroke-miterlimit="10"/>
<path d="M57.2464 67.6827C55.336 58.1403 51.4864 51.5547 47.0608 51.5547H38.7664C34.3408 51.5547 30.4912 58.1307 28.5808 67.6827H57.2368H57.2464Z" stroke="white" stroke-width="2" stroke-miterlimit="10" stroke-linecap="round"/>
<path d="M34.4752 53.282C31.8064 49.4324 27.6976 47.042 23.4544 46.8884C21.6496 46.8212 19.4128 47.1668 18.5392 49.298C17.6368 51.506 18.3088 54.4916 19.4512 56.402C20.44 58.0628 21.9088 59.2148 23.5504 59.7236C22.1392 61.0772 21.4672 63.7172 22.2928 65.5796C22.8592 66.8468 24.0784 67.5764 25.2688 67.6724C26.776 67.7972 28.1776 66.8756 29.3008 65.7908C29.8 65.3108 29.0896 64.4756 28.5904 64.9556C27.1696 66.3188 24.5008 67.49 23.2528 65.1572C22.264 63.3044 23.6848 59.9636 25.6144 60.0404C26.2672 60.0308 26.2672 58.8788 25.6144 58.8596C23.704 58.898 21.8512 57.9668 20.6224 56.2484C19.48 54.6644 18.712 51.986 19.4032 49.97C20.0752 48.002 22.3504 47.9828 23.8576 48.0884C25.6624 48.2132 27.4576 48.7892 29.0704 49.73C30.8944 50.786 32.488 52.274 33.7648 54.1172C34.1776 54.7124 34.888 53.8676 34.4752 53.282Z" fill="white" stroke="white" stroke-miterlimit="10"/>
<path d="M51.3616 53.282C54.0592 49.4324 58.2064 47.042 62.4976 46.8884C64.312 46.8212 66.5776 47.1668 67.4608 49.298C68.3728 51.506 67.6912 54.4916 66.5392 56.402C65.5408 58.0628 64.0528 59.2148 62.4016 59.7236C63.8224 61.0772 64.504 63.7172 63.6688 65.5796C63.1024 66.8468 61.864 67.5764 60.664 67.6724C59.1376 67.7972 57.7264 66.8756 56.584 65.7908C56.0752 65.3108 56.8048 64.4756 57.304 64.9556C58.7344 66.3188 61.4416 67.49 62.6992 65.1572C63.6976 63.3044 62.2672 59.9636 60.3184 60.0404C59.656 60.0308 59.6656 58.8788 60.3184 58.8596C62.248 58.898 64.12 57.9668 65.368 56.2484C66.52 54.6644 67.2976 51.986 66.6064 49.97C65.9344 48.002 63.6208 47.9828 62.104 48.0884C60.28 48.2132 58.4752 48.7892 56.8336 49.73C54.9904 50.786 53.3776 52.274 52.0912 54.1172C51.6784 54.7124 50.9584 53.8676 51.3712 53.282H51.3616Z" fill="white" stroke="white" stroke-miterlimit="10"/>
<path d="M30.6928 35.5695C32.5456 35.5695 32.5456 32.6895 30.6928 32.6895C28.84 32.6895 28.84 35.5695 30.6928 35.5695Z" fill="white"/>
<path d="M54.904 35.4269C56.7568 35.4269 56.7568 32.5469 54.904 32.5469C53.0512 32.5469 53.0512 35.4269 54.904 35.4269Z" fill="white"/>
</g>
<defs>
<linearGradient id="paint0_linear_1740_1865" x1="43" y1="83" x2="43" y2="3" gradientUnits="userSpaceOnUse">
<stop offset="0.32" stop-color="#502182"/>
<stop offset="0.93" stop-color="#2A173E"/>
</linearGradient>
<linearGradient id="paint1_linear_1740_1865" x1="43" y1="79" x2="43" y2="7" gradientUnits="userSpaceOnUse">
<stop offset="0.22" stop-color="#502182"/>
<stop offset="0.89" stop-color="#2A173E"/>
</linearGradient>
<clipPath id="clip0_1740_1865">
<rect width="72" height="72" fill="white" transform="translate(7 7)"/>
</clipPath>
</defs>
</svg>
