<svg width="26" height="26" viewBox="0 0 26 26" fill="none" xmlns="http://www.w3.org/2000/svg">
<path d="M25.4153 10.9991L18.7311 17.7058C19.3011 19.2897 19.5374 21.9423 17.0822 25.2063C16.9105 25.4358 16.6913 25.6255 16.4395 25.7625C16.1877 25.8995 15.9094 25.9806 15.6234 26.0001H15.4821C15.2193 26.0001 14.9591 25.9484 14.7162 25.8478C14.4734 25.7472 14.2528 25.5997 14.067 25.4138L8.03416 19.3747L2.70508 24.7075C2.51742 24.8952 2.26291 25.0006 1.99753 25.0006C1.73215 25.0006 1.47764 24.8952 1.28999 24.7075C1.10233 24.5199 0.996913 24.2653 0.996913 24C0.996913 23.7346 1.10233 23.4801 1.28999 23.2924L6.62282 17.9633L0.584943 11.9255C0.386479 11.7267 0.232088 11.4885 0.131819 11.2261C0.0315503 10.9638 -0.0123481 10.6833 0.00298221 10.4029C0.0183125 10.1224 0.0925274 9.84837 0.220796 9.59853C0.349064 9.34869 0.52851 9.12866 0.747453 8.95276C3.92515 6.38885 6.9666 6.89263 8.29793 7.31016L14.9984 0.585985C15.1841 0.400208 15.4046 0.252839 15.6473 0.152294C15.89 0.0517499 16.1501 0 16.4128 0C16.6755 0 16.9356 0.0517499 17.1783 0.152294C17.421 0.252839 17.6416 0.400208 17.8273 0.585985L25.414 8.17146C25.789 8.54636 25.9998 9.05481 26 9.58504C26.0002 10.1153 25.7899 10.6239 25.4153 10.9991Z" fill="#F4649F"/>
</svg>
